<svg height="512" viewBox="0 0 32 32" width="512" xmlns="http://www.w3.org/2000/svg"><g id="Arrow_Outline" data-name="Arrow Outline"><path d="m25.9912 22.4838-4.537-.5041a1.3208 1.3208 0 0 0 -1.08.3787l-.0015.0015a1.2118 1.2118 0 0 0 .6288 2.047l.9579.1873a10.3361 10.3361 0 0 1 -5.9813 1.877 10.4567 10.4567 0 0 1 -10.1031-13.127 1.5 1.5 0 0 0 -2.9-.7685 13.4332 13.4332 0 0 0 21.36 13.9607l.2924 1.4955a1.2117 1.2117 0 0 0 2.0468.6288l.0016-.0016a1.3206 1.3206 0 0 0 .3787-1.08l-.5045-4.5365a.6326.6326 0 0 0 -.5588-.5588z"/><path d="m16.0215 2.5288a13.4916 13.4916 0 0 0 -8.3561 2.9348l-.2924-1.4955a1.2117 1.2117 0 0 0 -2.0468-.6288l-.0016.0016a1.3206 1.3206 0 0 0 -.3787 1.08l.5041 4.5365a.6326.6326 0 0 0 .5588.5588l4.537.5041a1.3208 1.3208 0 0 0 1.08-.3787l.0015-.0015a1.2118 1.2118 0 0 0 -.6288-2.047l-.9585-.1872a10.3362 10.3362 0 0 1 5.9813-1.8771 10.4567 10.4567 0 0 1 10.1037 13.127 1.5008 1.5008 0 0 0 1.0664 1.8342 1.52 1.52 0 0 0 .3848.05 1.5007 1.5007 0 0 0 1.4492-1.1162 13.4584 13.4584 0 0 0 -13.0039-16.895z"/></g></svg>