<?xml version="1.0" encoding="UTF-8"?>
<!DOCTYPE svg PUBLIC "-//W3C//DTD SVG 1.1//EN" "http://www.w3.org/Graphics/SVG/1.1/DTD/svg11.dtd">
<svg xmlns="http://www.w3.org/2000/svg" version="1.1" width="512px" height="512px" style="shape-rendering:geometricPrecision; text-rendering:geometricPrecision; image-rendering:optimizeQuality; fill-rule:evenodd; clip-rule:evenodd" xmlns:xlink="http://www.w3.org/1999/xlink">
<g><path style="opacity:1" fill="#575757" d="M 239.5,24.5 C 250.172,24.3335 260.839,24.5002 271.5,25C 274.548,25.6064 277.048,27.1064 279,29.5C 281.903,42.8987 285.236,56.2321 289,69.5C 296.823,85.8147 305.157,101.815 314,117.5C 323.494,146.895 321.66,175.562 308.5,203.5C 319.605,205.693 330.605,208.36 341.5,211.5C 342.192,212.025 342.692,212.692 343,213.5C 343.667,220.5 343.667,227.5 343,234.5C 342.25,235.126 341.416,235.626 340.5,236C 327.171,236.5 313.837,236.667 300.5,236.5C 300.866,293.796 321.366,342.462 362,382.5C 362.862,384.087 363.529,385.754 364,387.5C 364.667,416.833 364.667,446.167 364,475.5C 363.169,480.681 360.336,484.181 355.5,486C 289.167,486.667 222.833,486.667 156.5,486C 152.333,484.5 149.5,481.667 148,477.5C 147.333,446.833 147.333,416.167 148,385.5C 148.471,383.754 149.138,382.087 150,380.5C 189.933,340.609 210.099,292.276 210.5,235.5C 196.163,235.667 181.829,235.5 167.5,235C 165.919,234.293 164.419,233.46 163,232.5C 162.333,226.5 162.333,220.5 163,214.5C 163.833,213 165,211.833 166.5,211C 178.535,208.126 190.535,205.126 202.5,202C 188.305,173.192 186.805,143.692 198,113.5C 206.778,98.9447 214.778,83.9447 222,68.5C 225.813,57.1018 228.48,45.4352 230,33.5C 231.775,28.888 234.942,25.888 239.5,24.5 Z"/></g>
<g><path style="opacity:1" fill="#000000" d="M 254.5,50.5 C 256.411,50.5743 257.578,51.5743 258,53.5C 263.312,77.454 272.979,99.454 287,119.5C 297.924,145.488 296.59,170.821 283,195.5C 281.5,197 280,198.5 278.5,200C 263.167,200.667 247.833,200.667 232.5,200C 224.575,190.98 219.742,180.48 218,168.5C 215.023,149.98 217.69,132.313 226,115.5C 239.87,95.7594 249.37,74.0927 254.5,50.5 Z"/></g>
<g><path style="opacity:1" fill="#010101" d="M 221.5,209.5 C 244.502,209.333 267.502,209.5 290.5,210C 303.455,213.822 316.455,217.489 329.5,221C 332.124,221.576 332.791,222.91 331.5,225C 280.833,225.667 230.167,225.667 179.5,225C 178.209,222.91 178.876,221.576 181.5,221C 195.041,217.452 208.374,213.619 221.5,209.5 Z"/></g>
<g><path style="opacity:1" fill="#000000" d="M 237.5,234.5 C 249.747,234.178 261.914,234.512 274,235.5C 274.812,296.971 296.145,349.971 338,394.5C 338.784,397.76 338.617,400.927 337.5,404C 282.929,404.831 228.429,404.664 174,403.5C 173.333,400.5 173.333,397.5 174,394.5C 215.445,349.353 236.612,296.02 237.5,234.5 Z"/></g>
<g><path style="opacity:1" fill="#000000" d="M 174.5,413.5 C 228.501,413.333 282.501,413.5 336.5,414C 337.657,429.092 337.824,444.259 337,459.5C 282.904,460.664 228.737,460.831 174.5,460C 173.174,444.5 173.174,429 174.5,413.5 Z"/></g>
</svg>
