<?xml version="1.0" encoding="UTF-8"?>
<!DOCTYPE svg PUBLIC "-//W3C//DTD SVG 1.1//EN" "http://www.w3.org/Graphics/SVG/1.1/DTD/svg11.dtd">
<svg xmlns="http://www.w3.org/2000/svg" version="1.1" width="512px" height="512px" style="shape-rendering:geometricPrecision; text-rendering:geometricPrecision; image-rendering:optimizeQuality; fill-rule:evenodd; clip-rule:evenodd" xmlns:xlink="http://www.w3.org/1999/xlink">
<g><path style="opacity:1" fill="#575757" d="M 239.5,24.5 C 250.172,24.3335 260.839,24.5002 271.5,25C 274.548,25.6064 277.048,27.1064 279,29.5C 281.903,42.8987 285.236,56.2321 289,69.5C 296.823,85.8147 305.157,101.815 314,117.5C 323.494,146.895 321.66,175.562 308.5,203.5C 319.605,205.693 330.605,208.36 341.5,211.5C 342.192,212.025 342.692,212.692 343,213.5C 343.667,220.5 343.667,227.5 343,234.5C 342.25,235.126 341.416,235.626 340.5,236C 327.171,236.5 313.837,236.667 300.5,236.5C 300.866,293.796 321.366,342.462 362,382.5C 362.862,384.087 363.529,385.754 364,387.5C 364.667,416.833 364.667,446.167 364,475.5C 363.169,480.681 360.336,484.181 355.5,486C 289.167,486.667 222.833,486.667 156.5,486C 152.333,484.5 149.5,481.667 148,477.5C 147.333,446.833 147.333,416.167 148,385.5C 148.471,383.754 149.138,382.087 150,380.5C 189.933,340.609 210.099,292.276 210.5,235.5C 196.163,235.667 181.829,235.5 167.5,235C 165.919,234.293 164.419,233.46 163,232.5C 162.333,226.5 162.333,220.5 163,214.5C 163.833,213 165,211.833 166.5,211C 178.535,208.126 190.535,205.126 202.5,202C 188.305,173.192 186.805,143.692 198,113.5C 206.778,98.9447 214.778,83.9447 222,68.5C 225.813,57.1018 228.48,45.4352 230,33.5C 231.775,28.888 234.942,25.888 239.5,24.5 Z"/></g>
<g><path style="opacity:1" fill="#fefefe" d="M 254.5,49.5 C 256.752,49.9156 258.252,51.249 259,53.5C 264.312,77.454 273.979,99.454 288,119.5C 298.924,145.488 297.59,170.821 284,195.5C 282.167,197.333 280.333,199.167 278.5,201C 263.167,201.667 247.833,201.667 232.5,201C 223.995,191.82 218.828,180.987 217,168.5C 214.023,149.98 216.69,132.313 225,115.5C 238.357,96.7802 247.357,76.1135 252,53.5C 252.662,52.0161 253.496,50.6828 254.5,49.5 Z"/></g>
<g><path style="opacity:1" fill="#fcfcfc" d="M 221.5,208.5 C 244.502,208.333 267.502,208.5 290.5,209C 303.455,212.822 316.455,216.489 329.5,220C 333.462,221.211 334.129,223.211 331.5,226C 280.833,226.667 230.167,226.667 179.5,226C 176.871,223.211 177.538,221.211 181.5,220C 195.041,216.452 208.374,212.619 221.5,208.5 Z"/></g>
<g><path style="opacity:1" fill="#fefefe" d="M 237.5,233.5 C 249.505,233.333 261.505,233.5 273.5,234C 275.322,288.467 292.822,337.3 326,380.5C 329.966,385.467 334.299,390.134 339,394.5C 340.023,398.317 339.523,401.817 337.5,405C 283.167,405.667 228.833,405.667 174.5,405C 172.477,401.817 171.977,398.317 173,394.5C 214.467,348.891 235.967,295.224 237.5,233.5 Z"/></g>
<g><path style="opacity:1" fill="#fefefe" d="M 174.5,412.5 C 228.501,412.333 282.501,412.5 336.5,413C 337,413.5 337.5,414 338,414.5C 338.667,429.5 338.667,444.5 338,459.5C 337.5,460 337,460.5 336.5,461C 282.5,461.667 228.5,461.667 174.5,461C 174,460.5 173.5,460 173,459.5C 172.333,444.5 172.333,429.5 173,414.5C 173.717,413.956 174.217,413.289 174.5,412.5 Z"/></g>
</svg>
