<?xml version="1.0" encoding="UTF-8"?>
<!DOCTYPE svg PUBLIC "-//W3C//DTD SVG 1.1//EN" "http://www.w3.org/Graphics/SVG/1.1/DTD/svg11.dtd">
<svg xmlns="http://www.w3.org/2000/svg" version="1.1" width="512px" height="512px" style="shape-rendering:geometricPrecision; text-rendering:geometricPrecision; image-rendering:optimizeQuality; fill-rule:evenodd; clip-rule:evenodd" xmlns:xlink="http://www.w3.org/1999/xlink">
<g><path style="opacity:1" fill="#575757" d="M 209.5,-0.5 C 233.5,-0.5 257.5,-0.5 281.5,-0.5C 350.164,14.7782 399.331,54.4449 429,118.5C 453.568,183.903 454.234,249.57 431,315.5C 428.924,318.588 426.091,320.421 422.5,321C 404.503,321.5 386.503,321.667 368.5,321.5C 364.418,335.635 363.585,349.969 366,364.5C 382.46,367.294 391.794,376.96 394,393.5C 394.167,407.179 394.667,420.846 395.5,434.5C 426.058,446.092 442.391,468.258 444.5,501C 443.927,505.386 441.927,508.886 438.5,511.5C 315.167,511.5 191.833,511.5 68.5,511.5C 65.0729,508.886 63.0729,505.386 62.5,501C 64.6089,468.258 80.9422,446.092 111.5,434.5C 112.333,420.846 112.833,407.179 113,393.5C 115.333,376.5 125,366.833 142,364.5C 148.09,325.147 165.59,291.981 194.5,265C 212.554,252.878 227.221,237.545 238.5,219C 222.405,214.606 208.072,217.94 195.5,229C 189.802,235.032 183.802,240.699 177.5,246C 160.493,255.444 144.16,254.444 128.5,243C 119,233.5 109.5,224 100,214.5C 91.4726,202.515 90.806,190.182 98,177.5C 112.971,161.529 128.304,145.862 144,130.5C 149.089,95.2476 168.922,73.5809 203.5,65.5C 203.333,46.4971 203.5,27.4971 204,8.5C 204.825,4.84425 206.658,1.84425 209.5,-0.5 Z"/></g>
<g><path style="opacity:1" fill="#fefefe" d="M 225.5,19.5 C 233.84,19.3336 242.173,19.5003 250.5,20C 257,22.5 261.5,27 264,33.5C 264.333,48.1667 264.667,62.8333 265,77.5C 265.504,81.0202 267.337,83.5202 270.5,85C 316.868,94.0382 347.702,120.871 363,165.5C 371.317,195.957 372.317,226.623 366,257.5C 358.59,283.062 351.59,308.728 345,334.5C 344.598,344.787 344.431,354.954 344.5,365C 284.167,365.667 223.833,365.667 163.5,365C 169.791,323.783 190.124,291.116 224.5,267C 237.388,255.123 248.388,241.789 257.5,227C 273.387,229.173 288.72,227.173 303.5,221C 314.762,216.527 316.429,209.86 308.5,201C 305.833,200.333 303.167,200.333 300.5,201C 287.534,208.662 273.867,210.329 259.5,206C 233.117,191.765 208.117,193.765 184.5,212C 178.198,217.301 172.198,222.968 166.5,229C 158.833,233.667 151.167,233.667 143.5,229C 133.303,219.137 123.47,208.971 114,198.5C 113.088,194.548 113.755,190.881 116,187.5C 131.667,171.833 147.333,156.167 163,140.5C 165.734,106.1 184.234,87.2662 218.5,84C 221.663,82.5202 223.496,80.0202 224,76.5C 224.179,57.4268 224.679,38.4268 225.5,19.5 Z"/></g>
<g><path style="opacity:1" fill="#fefefe" d="M 281.5,20.5 C 325.319,30.1583 360.819,52.825 388,88.5C 412.299,121.723 425.299,159.056 427,200.5C 429.054,230.35 426.054,259.683 418,288.5C 417.176,292.656 415.676,296.489 413.5,300C 400.345,300.978 387.345,300.645 374.5,299C 392.204,251.455 394.037,203.288 380,154.5C 368.536,123.039 348.37,98.8726 319.5,82C 308.344,76.1757 296.844,71.3423 285,67.5C 284.667,57.1667 284.333,46.8333 284,36.5C 283.459,31.6711 282.293,27.0044 280.5,22.5C 280.863,21.8165 281.196,21.1499 281.5,20.5 Z"/></g>
<g><path style="opacity:1" fill="#575857" d="M 202.5,135.5 C 209.841,135.334 217.174,135.5 224.5,136C 232.536,138.784 234.702,143.951 231,151.5C 229.2,153.317 227.034,154.484 224.5,155C 217.167,155.667 209.833,155.667 202.5,155C 194.464,152.216 192.298,147.049 196,139.5C 198.013,137.752 200.18,136.418 202.5,135.5 Z"/></g>
<g><path style="opacity:1" fill="#fefefe" d="M 139.5,385.5 C 215.501,385.333 291.501,385.5 367.5,386C 370,387.167 371.833,389 373,391.5C 373.822,404.742 373.655,417.909 372.5,431C 345.833,431.333 319.167,431.667 292.5,432C 284.464,434.784 282.298,439.951 286,447.5C 287.8,449.317 289.966,450.484 292.5,451C 322.5,451.333 352.5,451.667 382.5,452C 402.904,457.023 416.238,469.523 422.5,489.5C 422.291,490.086 421.957,490.586 421.5,491C 309.5,491.667 197.5,491.667 85.5,491C 87.6617,477.388 94.6617,466.722 106.5,459C 112.075,455.545 118.075,453.212 124.5,452C 154.5,451.667 184.5,451.333 214.5,451C 221.61,448.94 224.11,444.44 222,437.5C 220.52,434.337 218.02,432.504 214.5,432C 187.833,431.667 161.167,431.333 134.5,431C 133.345,417.909 133.178,404.742 134,391.5C 135.36,388.977 137.193,386.977 139.5,385.5 Z"/></g>
<g><path style="opacity:1" fill="#575857" d="M 252.5,431.5 C 261.977,433.457 264.81,438.79 261,447.5C 256.827,451.694 252.327,452.194 247.5,449C 241.947,441.156 243.613,435.323 252.5,431.5 Z"/></g>
</svg>
