<?xml version="1.0" encoding="UTF-8"?>
<!DOCTYPE svg PUBLIC "-//W3C//DTD SVG 1.1//EN" "http://www.w3.org/Graphics/SVG/1.1/DTD/svg11.dtd">
<svg xmlns="http://www.w3.org/2000/svg" version="1.1" width="512px" height="512px" style="shape-rendering:geometricPrecision; text-rendering:geometricPrecision; image-rendering:optimizeQuality; fill-rule:evenodd; clip-rule:evenodd" xmlns:xlink="http://www.w3.org/1999/xlink">
<g><path style="opacity:1" fill="#575757" d="M 209.5,-0.5 C 233.5,-0.5 257.5,-0.5 281.5,-0.5C 350.164,14.7782 399.331,54.4449 429,118.5C 453.568,183.903 454.234,249.57 431,315.5C 428.924,318.588 426.091,320.421 422.5,321C 404.503,321.5 386.503,321.667 368.5,321.5C 364.418,335.635 363.585,349.969 366,364.5C 382.46,367.294 391.794,376.96 394,393.5C 394.167,407.179 394.667,420.846 395.5,434.5C 426.058,446.092 442.391,468.258 444.5,501C 443.927,505.386 441.927,508.886 438.5,511.5C 315.167,511.5 191.833,511.5 68.5,511.5C 65.0729,508.886 63.0729,505.386 62.5,501C 64.6089,468.258 80.9422,446.092 111.5,434.5C 112.333,420.846 112.833,407.179 113,393.5C 115.333,376.5 125,366.833 142,364.5C 148.09,325.147 165.59,291.981 194.5,265C 212.554,252.878 227.221,237.545 238.5,219C 222.405,214.606 208.072,217.94 195.5,229C 189.802,235.032 183.802,240.699 177.5,246C 160.493,255.444 144.16,254.444 128.5,243C 119,233.5 109.5,224 100,214.5C 91.4726,202.515 90.806,190.182 98,177.5C 112.971,161.529 128.304,145.862 144,130.5C 149.089,95.2476 168.922,73.5809 203.5,65.5C 203.333,46.4971 203.5,27.4971 204,8.5C 204.825,4.84425 206.658,1.84425 209.5,-0.5 Z"/></g>
<g><path style="opacity:1" fill="#000000" d="M 225.5,20.5 C 233.84,20.3336 242.173,20.5003 250.5,21C 256.667,23.1667 260.833,27.3333 263,33.5C 263.333,48.1667 263.667,62.8333 264,77.5C 264.668,81.4987 266.835,84.332 270.5,86C 326.92,98.4209 359.087,133.254 367,190.5C 370.617,212.957 369.951,235.29 365,257.5C 357.59,283.062 350.59,308.728 344,334.5C 343.242,344.534 343.409,354.534 344.5,364.5C 284.163,364.833 223.83,364.5 163.5,363.5C 171.114,323.414 191.448,291.581 224.5,268C 237.524,256.404 248.524,243.238 257.5,228.5C 275.798,230.808 293.131,227.641 309.5,219C 316.38,212.26 316.047,205.927 308.5,200C 305.833,199.333 303.167,199.333 300.5,200C 287.534,207.662 273.867,209.329 259.5,205C 233.117,190.765 208.117,192.765 184.5,211C 178.198,216.301 172.198,221.968 166.5,228C 158.833,232.667 151.167,232.667 143.5,228C 133.636,218.47 124.136,208.637 115,198.5C 114.088,194.548 114.755,190.881 117,187.5C 132.667,171.833 148.333,156.167 164,140.5C 166.4,106.434 184.567,87.9338 218.5,85C 222.165,83.332 224.332,80.4987 225,76.5C 225.5,57.8363 225.667,39.1696 225.5,20.5 Z"/></g>
<g><path style="opacity:1" fill="#000000" d="M 281.5,21.5 C 340.57,35.7261 383.07,70.3928 409,125.5C 430.566,182.825 432.066,240.659 413.5,299C 400.833,299.667 388.167,299.667 375.5,299C 393.204,251.455 395.037,203.288 381,154.5C 363.635,109.968 331.969,80.9685 286,67.5C 285.667,57.1667 285.333,46.8333 285,36.5C 284.301,31.3711 283.134,26.3711 281.5,21.5 Z"/></g>
<g><path style="opacity:1" fill="#575857" d="M 202.5,134.5 C 209.841,134.334 217.174,134.5 224.5,135C 233.183,137.858 235.683,143.358 232,151.5C 230.048,153.894 227.548,155.394 224.5,156C 217.167,156.667 209.833,156.667 202.5,156C 193.817,153.142 191.317,147.642 195,139.5C 197.17,137.177 199.67,135.51 202.5,134.5 Z"/></g>
<g><path style="opacity:1" fill="#000000" d="M 139.5,386.5 C 215.501,386.333 291.501,386.5 367.5,387C 369.667,387.833 371.167,389.333 372,391.5C 372.5,404.496 372.667,417.496 372.5,430.5C 345.831,430.333 319.165,430.5 292.5,431C 283.817,433.858 281.317,439.358 285,447.5C 286.952,449.894 289.452,451.394 292.5,452C 322.5,452.333 352.5,452.667 382.5,453C 402.471,457.807 415.471,469.973 421.5,489.5C 309.5,490.833 197.5,490.833 85.5,489.5C 91.5292,469.973 104.529,457.807 124.5,453C 154.5,452.667 184.5,452.333 214.5,452C 222.168,449.816 225.001,444.982 223,437.5C 221.332,433.835 218.499,431.668 214.5,431C 187.835,430.5 161.169,430.333 134.5,430.5C 134.333,417.496 134.5,404.496 135,391.5C 136.025,389.313 137.525,387.646 139.5,386.5 Z"/></g>
<g><path style="opacity:1" fill="#575857" d="M 252.5,430.5 C 262.531,432.573 265.698,438.24 262,447.5C 257.743,452.378 252.909,453.211 247.5,450C 240.623,441.447 242.29,434.947 252.5,430.5 Z"/></g>
</svg>
