<?xml version="1.0" encoding="UTF-8"?>
<!DOCTYPE svg PUBLIC "-//W3C//DTD SVG 1.1//EN" "http://www.w3.org/Graphics/SVG/1.1/DTD/svg11.dtd">
<svg xmlns="http://www.w3.org/2000/svg" version="1.1" width="512px" height="512px" style="shape-rendering:geometricPrecision; text-rendering:geometricPrecision; image-rendering:optimizeQuality; fill-rule:evenodd; clip-rule:evenodd" xmlns:xlink="http://www.w3.org/1999/xlink">
<g><path style="opacity:1" fill="#575757" d="M 241.5,-0.5 C 250.833,-0.5 260.167,-0.5 269.5,-0.5C 314.966,10.6441 339.633,39.6441 343.5,86.5C 342.7,107.742 335.7,126.575 322.5,143C 349.556,150.724 361.389,168.557 358,196.5C 350.697,218.913 335.197,230.246 311.5,230.5C 313.022,272.947 325.188,311.947 348,347.5C 351.381,351.759 354.881,355.926 358.5,360C 383.29,363.958 396.956,378.458 399.5,403.5C 399.162,410.346 397.495,416.846 394.5,423C 406.103,432.361 412.936,444.528 415,459.5C 415.667,472.5 415.667,485.5 415,498.5C 413.755,504.357 410.588,508.691 405.5,511.5C 305.5,511.5 205.5,511.5 105.5,511.5C 100.412,508.691 97.2454,504.357 96,498.5C 95.3333,485.5 95.3333,472.5 96,459.5C 98.0637,444.528 104.897,432.361 116.5,423C 107.762,402.16 111.762,384.16 128.5,369C 135.679,363.829 143.679,360.829 152.5,360C 171.231,338.375 184.065,313.541 191,285.5C 195.567,267.429 198.401,249.096 199.5,230.5C 171.056,229.389 155.056,214.723 151.5,186.5C 153.561,163.272 165.894,148.772 188.5,143C 161.14,106.22 160.64,69.0536 187,31.5C 201.65,14.651 219.816,3.98435 241.5,-0.5 Z"/></g>
<g><path style="opacity:1" fill="#010101" d="M 246.5,28.5 C 277.44,26.7154 298.94,40.0488 311,68.5C 318.525,103.284 306.025,127.784 273.5,142C 238.716,149.525 214.216,137.025 200,104.5C 192.908,75.4345 201.741,52.6012 226.5,36C 232.96,32.5884 239.627,30.0884 246.5,28.5 Z"/></g>
<g><path style="opacity:1" fill="#040404" d="M 190.5,172.5 C 233.501,172.333 276.501,172.5 319.5,173C 328.751,177.072 331.585,183.905 328,193.5C 325.713,196.462 322.88,198.629 319.5,200C 276.833,200.667 234.167,200.667 191.5,200C 181.922,196.006 179.089,189.173 183,179.5C 185.396,176.933 187.896,174.6 190.5,172.5 Z"/></g>
<g><path style="opacity:1" fill="#020202" d="M 230.5,228.5 C 247.17,228.333 263.837,228.5 280.5,229C 281,229.5 281.5,230 282,230.5C 283.768,276.79 296.601,319.623 320.5,359C 319.833,359.667 319.167,360.333 318.5,361C 276.5,361.667 234.5,361.667 192.5,361C 191.833,360.333 191.167,359.667 190.5,359C 214.399,319.623 227.232,276.79 229,230.5C 229.717,229.956 230.217,229.289 230.5,228.5 Z"/></g>
<g><path style="opacity:1" fill="#030303" d="M 150.5,389.5 C 220.167,389.333 289.834,389.5 359.5,390C 368.751,394.072 371.585,400.905 368,410.5C 365.713,413.462 362.88,415.629 359.5,417C 290.167,417.667 220.833,417.667 151.5,417C 142.242,412.902 139.408,406.069 143,396.5C 145.396,393.933 147.896,391.6 150.5,389.5 Z"/></g>
<g><path style="opacity:1" fill="#030303" d="M 138.5,445.5 C 216.501,445.333 294.501,445.5 372.5,446C 377.525,447.689 381.359,450.856 384,455.5C 385.572,463.755 385.905,472.089 385,480.5C 384.5,481 384,481.5 383.5,482C 298.167,482.667 212.833,482.667 127.5,482C 127,481.5 126.5,481 126,480.5C 125.333,473.167 125.333,465.833 126,458.5C 128.353,452.315 132.52,447.982 138.5,445.5 Z"/></g>
</svg>
