<?xml version="1.0" encoding="UTF-8"?>
<!DOCTYPE svg PUBLIC "-//W3C//DTD SVG 1.1//EN" "http://www.w3.org/Graphics/SVG/1.1/DTD/svg11.dtd">
<svg xmlns="http://www.w3.org/2000/svg" version="1.1" width="512px" height="512px" style="shape-rendering:geometricPrecision; text-rendering:geometricPrecision; image-rendering:optimizeQuality; fill-rule:evenodd; clip-rule:evenodd" xmlns:xlink="http://www.w3.org/1999/xlink">
<g><path style="opacity:1" fill="#575757" d="M 130.5,-0.5 C 147.167,-0.5 163.833,-0.5 180.5,-0.5C 183.342,1.84425 185.175,4.84425 186,8.5C 186.5,18.4944 186.666,28.4944 186.5,38.5C 192.5,38.5 198.5,38.5 204.5,38.5C 204.334,28.1613 204.5,17.828 205,7.5C 206.104,4.27885 207.937,1.61218 210.5,-0.5C 240.5,-0.5 270.5,-0.5 300.5,-0.5C 303.342,1.84425 305.175,4.84425 306,8.5C 306.5,18.4944 306.666,28.4944 306.5,38.5C 312.5,38.5 318.5,38.5 324.5,38.5C 324.334,28.1613 324.5,17.828 325,7.5C 326.104,4.27885 327.937,1.61218 330.5,-0.5C 347.167,-0.5 363.833,-0.5 380.5,-0.5C 383.342,1.84425 385.175,4.84425 386,8.5C 386.667,31.5 386.667,54.5 386,77.5C 385.009,88.3166 379.842,96.4833 370.5,102C 355.786,107.071 341.119,112.238 326.5,117.5C 332.935,181.116 339.102,244.782 345,308.5C 345.388,309.428 346.055,310.095 347,310.5C 370.14,315.452 379.14,329.452 374,352.5C 371.734,355.993 370.4,359.66 370,363.5C 382.068,378.636 393.401,394.303 404,410.5C 407.551,419.872 406.718,428.872 401.5,437.5C 413.367,445.548 421.201,456.548 425,470.5C 426.921,482.518 426.921,494.518 425,506.5C 423.634,508.362 422.134,510.028 420.5,511.5C 310.5,511.5 200.5,511.5 90.5,511.5C 87.9374,509.388 86.104,506.721 85,503.5C 84.181,492.461 84.5144,481.461 86,470.5C 89.7992,456.548 97.6325,445.548 109.5,437.5C 102.525,424.998 103.358,412.998 112,401.5C 121.667,388.833 131.333,376.167 141,363.5C 140.6,359.66 139.266,355.993 137,352.5C 131.86,329.452 140.86,315.452 164,310.5C 164.945,310.095 165.612,309.428 166,308.5C 171.931,244.59 178.098,180.756 184.5,117C 169.759,112.197 155.092,107.197 140.5,102C 131.158,96.4833 125.991,88.3166 125,77.5C 124.333,54.1667 124.333,30.8333 125,7.5C 126.104,4.27885 127.937,1.61218 130.5,-0.5 Z"/></g>
<g><path style="opacity:1" fill="#fefefe" d="M 146.5,18.5 C 152.509,18.3338 158.509,18.5005 164.5,19C 165,19.5 165.5,20 166,20.5C 166.333,30.8333 166.667,41.1667 167,51.5C 167.346,53.8477 168.513,55.6811 170.5,57C 178.775,58.1026 187.108,58.6026 195.5,58.5C 202.5,58.3333 209.5,58.1667 216.5,58C 219.276,57.9343 221.442,56.7676 223,54.5C 224.243,43.2239 224.91,31.8906 225,20.5C 225.5,20 226,19.5 226.5,19C 245.833,18.3333 265.167,18.3333 284.5,19C 285,19.5 285.5,20 286,20.5C 286.333,30.8333 286.667,41.1667 287,51.5C 287.346,53.8477 288.513,55.6811 290.5,57C 305.779,58.6018 321.112,58.9352 336.5,58C 341,57.5 343.5,55 344,50.5C 344.333,40.5 344.667,30.5 345,20.5C 345.5,20 346,19.5 346.5,19C 352.5,18.3333 358.5,18.3333 364.5,19C 365,19.5 365.5,20 366,20.5C 366.667,40.1667 366.667,59.8333 366,79.5C 364.437,82.7284 361.937,84.8951 358.5,86C 344.5,90.6667 330.5,95.3333 316.5,100C 275.833,100.667 235.167,100.667 194.5,100C 179.016,95.0612 163.683,89.7279 148.5,84C 147.213,82.5905 146.046,81.0905 145,79.5C 144.333,59.8333 144.333,40.1667 145,20.5C 145.717,19.9558 146.217,19.2891 146.5,18.5 Z"/></g>
<g><path style="opacity:1" fill="#fefefe" d="M 205.5,118.5 C 238.835,118.333 272.168,118.5 305.5,119C 306,119.5 306.5,120 307,120.5C 313.673,182.401 319.84,244.401 325.5,306.5C 325.674,308.693 325.007,310.527 323.5,312C 278.167,312.667 232.833,312.667 187.5,312C 187,311.5 186.5,311 186,310.5C 191.123,247.816 196.789,185.149 203,122.5C 203.662,121.016 204.496,119.683 205.5,118.5 Z"/></g>
<g><path style="opacity:1" fill="#fdfdfd" d="M 161.5,330.5 C 224.168,330.333 286.834,330.5 349.5,331C 356.414,334.77 358.247,340.27 355,347.5C 353.457,349.378 351.624,350.878 349.5,352C 286.833,352.667 224.167,352.667 161.5,352C 154.586,348.23 152.753,342.73 156,335.5C 157.73,333.598 159.563,331.931 161.5,330.5 Z"/></g>
<g><path style="opacity:1" fill="#fdfdfd" d="M 159.5,370.5 C 223.501,370.333 287.501,370.5 351.5,371C 362.788,385.744 373.955,400.577 385,415.5C 388.247,422.73 386.414,428.23 379.5,432C 296.833,432.667 214.167,432.667 131.5,432C 125.397,428.96 123.231,424.126 125,417.5C 136.509,401.804 148.009,386.137 159.5,370.5 Z"/></g>
<g><path style="opacity:1" fill="#575857" d="M 194.5,392.5 C 203.12,393.632 205.953,398.299 203,406.5C 198,411.833 193,411.833 188,406.5C 185.303,399.382 187.47,394.716 194.5,392.5 Z"/></g>
<g><path style="opacity:1" fill="#575857" d="M 234.5,392.5 C 261.835,392.333 289.169,392.5 316.5,393C 321.377,393.711 324.043,396.544 324.5,401.5C 324.043,406.456 321.377,409.289 316.5,410C 289.167,410.667 261.833,410.667 234.5,410C 227.382,408.008 225.215,403.508 228,396.5C 229.792,394.372 231.958,393.039 234.5,392.5 Z"/></g>
<g><path style="opacity:1" fill="#fefefe" d="M 128.5,450.5 C 213.167,450.333 297.834,450.5 382.5,451C 402.519,458.045 409.852,471.712 404.5,492C 305.167,492.667 205.833,492.667 106.5,492C 101.321,471.649 108.654,457.816 128.5,450.5 Z"/></g>
</svg>
