<svg xmlns="http://www.w3.org/2000/svg" class="logo" xml:space="preserve" version="1.1"
                style="shape-rendering:geometricPrecision; text-rendering:geometricPrecision; image-rendering:optimizeQuality; fill-rule:evenodd; clip-rule:evenodd"
                viewBox="618 548 207 216" xmlns:xlink="http://www.w3.org/1999/xlink"
                xmlns:xodm="http://www.corel.com/coreldraw/odm/2003">
                <defs>
                    <clipPath id="id0">
                        <path
                            d="M772.78 686.2c1.58,0.4 3.08,1.02 4.46,1.81 2.87,-1.66 4.16,-2.36 5.92,-3.38 0.92,0.92 3.01,3 3.76,3.81 -0.71,1.88 -2.52,4.27 -3.2,6.01 0.83,1.43 1.47,2.98 1.89,4.62 3.14,0.85 4.54,1.26 6.49,1.78 0,1.29 0,4.25 -0.03,5.35 -1.86,0.84 -4.86,1.25 -6.57,2.01 -0.45,1.59 -1.11,3.09 -1.95,4.47 1.67,2.9 2.37,4.19 3.4,5.96 -0.92,0.91 -3.01,3 -3.81,3.76 -1.95,-0.74 -4.42,-2.64 -6.18,-3.27l-0.13 -0.06c-1.32,0.72 -2.73,1.27 -4.22,1.64 -0.92,3.41 -1.34,4.83 -1.88,6.86 -1.29,0 -4.25,0 -5.35,-0.03 -0.86,-1.9 -1.26,-4.99 -2.06,-6.68 -0.07,-0.15 -0.11,-0.29 -0.13,-0.41 -1.36,-0.41 -2.65,-0.98 -3.85,-1.68l-0.12 0.07c-3.13,1.8 -4.44,2.52 -6.28,3.58 -0.91,-0.91 -3,-3 -3.76,-3.8 0.74,-1.95 2.64,-4.43 3.27,-6.18 0.08,-0.23 0.18,-0.39 0.29,-0.49 -0.65,-1.19 -1.17,-2.46 -1.54,-3.79l-0.22 -0.05c-3.49,-0.94 -4.92,-1.36 -6.97,-1.91 0,-1.29 0,-4.25 0.03,-5.35 1.9,-0.85 4.99,-1.26 6.68,-2.05 0.19,-0.09 0.36,-0.14 0.5,-0.15 0.37,-1.36 0.91,-2.65 1.58,-3.86l-0.06 -0.09c-1.81,-3.13 -2.52,-4.45 -3.58,-6.29 0.91,-0.91 3,-3 3.8,-3.76 1.95,0.74 4.42,2.64 6.18,3.28 0.11,0.03 0.2,0.07 0.27,0.12 1.28,-0.74 2.65,-1.33 4.1,-1.74 0.91,-3.39 1.33,-4.81 1.87,-6.83 1.29,0 4.24,0 5.35,0.03 0.85,1.9 1.26,4.99 2.05,6.69zm-26.57 -16.93l-0.39 0.39 -0.97 0.97 -0.98 0.98 -0.98 0.98 -0.97 0.97 -0.98 0.98 -0.98 0.97 -0.97 0.98 -0.98 0.98 -0.97 0.97 -0.98 0.98 -0.98 0.98 -0.97 0.97 -0.98 0.98 -0.97 0.97 -0.98 0.98 -0.98 0.98 -0.97 0.97 -0.98 0.98 -0.98 0.97 -0.97 0.98 -0.98 0.98 -0.97 0.97 -0.98 0.98 -0.98 0.97 -0.97 0.98 -0.98 0.98 -0.98 0.97 -0.97 0.98 -0.98 0.98 -0.97 0.97 -0.98 0.98 -0.98 0.98 -0.97 0.97 -0.98 0.98 -0.97 0.97 -0.98 0.98 -0.98 0.98 -0.97 0.97 -0.98 0.98 -0.98 0.97 -0.97 0.98 -0.98 0.98 -0.97 0.97 -0.98 0.98 -0.98 0.97 -0.97 0.98 -0.98 0.98 -0.97 0.97 -0.98 0.98 -0.98 0.98 -0.97 0.97 -0.19 0.18c-3.85,3.87 -8.64,9.1 -8.84,19.41 -0.09,4.49 -2.2,8.88 -5.63,12.31 -4.57,4.57 -10.85,6.38 -16.78,5.44l12.66 -12.66c2.55,-2.55 0.11,-6.95 -0.83,-10.44 -0.34,-1.28 -3,-3.86 -4.86,-4.76 -3.33,-1.6 -7.87,-3.45 -10.38,-0.94l-12.69 12.7c-0.94,-5.93 0.87,-12.21 5.44,-16.78 3.35,-3.35 7.62,-5.29 12.01,-5.61 11.16,-0.81 17.78,-6.07 20.22,-8.49l0.12 -0.11 0.39 -0.39 0.97 -0.97 0.98 -0.98 0.97 -0.98 0.98 -0.97 0.98 -0.98 0.97 -0.97 0.98 -0.98 0.98 -0.98 0.97 -0.97 0.98 -0.98 0.97 -0.98 0.98 -0.97 0.98 -0.98 0.97 -0.97 0.98 -0.98 0.97 -0.98 0.98 -0.97 0.98 -0.98 0.97 -0.97 0.98 -0.98 0.97 -0.98 0.98 -0.97 0.98 -0.98 0.97 -0.98 0.98 -0.97 0.98 -0.98 0.97 -0.97 0.98 -0.98 0.97 -0.98 0.98 -0.97 0.98 -0.98 0.97 -0.97 0.98 -0.98 0.98 -0.98 0.97 -0.97 0.98 -0.98 0.97 -0.98 0.98 -0.97 0.98 -0.98 0.97 -0.97 0.98 -0.98 0.98 -0.98 0.97 -0.97 0.98 -0.98 0.97 -0.97 0.98 -0.98 0.98 -0.98 0.97 -0.97 0.98 -0.98 0.97 -0.98 0.98 -0.97 0.18 -0.18c3.86,-3.87 8.65,-9.1 8.85,-19.41 0.09,-4.49 2.2,-8.88 5.63,-12.31 4.57,-4.57 10.85,-6.38 16.78,-5.44l-12.66 12.66c-2.55,2.55 -0.11,6.95 0.82,10.43 0.35,1.29 3,3.87 4.87,4.77 3.33,1.6 7.87,3.45 10.38,0.94l12.69 -12.7c0.94,5.93 -0.87,12.21 -5.44,16.78 -3.35,3.35 -7.62,5.29 -12.01,5.61 -11.16,0.81 -17.78,6.07 -20.23,8.49l-0.11 0.11zm-6.06 -70.78l4.14 4.14c0.76,0.76 0.07,2.85 -0.65,3.64l-13.28 14.38 -3.79 0.24 -4.77 -4.77 4.77 4.77 -38.69 38.69 1.01 1c0.84,0.84 0.84,2.21 0,3.05l-0.24 0.24c-0.84,0.84 -2.11,0.94 -2.7,0.35 -0.83,-0.83 -1.87,0.17 -2.61,0.91l-0.95 0.95c1.51,2.38 1.23,5.59 -0.84,7.65l-46.37 46.38c-2.4,2.39 -6.32,2.39 -8.72,0l-4.66 -4.67c-2.4,-2.4 -2.4,-6.32 0,-8.71l46.37 -46.38c2.34,-2.33 6.13,-2.39 8.54,-0.16l0.87 -0.88c0.86,-0.85 1.65,-1.81 0.65,-2.81 -0.6,-0.6 -0.52,-1.9 0.32,-2.74l0.23 -0.23c0.84,-0.84 2.22,-0.84 3.06,0l1.27 1.27 38.69 -38.68 0.14 -3.89 14.87 -12.86c0.79,-0.69 2.6,-1.61 3.34,-0.88zm-18.72 -48.4l70.3 0c14.49,0 26.35,11.86 26.35,26.36l0 7.06 1.71 0c1.01,0 1.84,0.83 1.84,1.84l0 21.04c0,1.01 -0.83,1.84 -1.84,1.84l-1.71 0 0 5.95 1.71 0c1.01,0 1.84,0.83 1.84,1.84l0 9.27c0,1.01 -0.83,1.84 -1.84,1.84l-1.71 0 0 105.83c0,15.42 -12.62,28.04 -28.04,28.04l-68.61 0c-14.17,0 -25.97,-10.65 -27.79,-24.34 -0.73,-5.45 3.45,-9.5 7.43,-13.05l0 10.91c0,10.52 8.61,19.12 19.13,19.12l71.07 0c10.52,0 19.13,-8.6 19.13,-19.12l0 -157.94c0,-10.52 -8.61,-19.13 -19.13,-19.13l-71.07 0c-10.52,0 -19.13,8.61 -19.13,19.13l0 51.7 -7.68 7.95 0 -58.1c0,-15.42 12.62,-28.04 28.04,-28.04zm-28.04 143.7l0 -31.15 7.68 -8.58 0 32.72 -7.68 7.01zm88.75 -111.05c0.99,-0.06 1.97,0.02 2.91,0.23 1.35,-1.49 1.97,-2.13 2.8,-3.04 0.69,0.36 2.29,1.18 2.87,1.5 -0.07,1.22 -0.67,2.93 -0.75,4.06 0.75,0.67 1.41,1.45 1.95,2.32 1.97,-0.09 2.85,-0.11 4.07,-0.16 0.24,0.74 0.78,2.45 0.97,3.09 -0.92,0.82 -2.58,1.61 -3.43,2.37 0.04,1 -0.06,1.98 -0.3,2.94 1.5,1.36 2.14,1.98 3.06,2.81 -0.36,0.7 -1.18,2.29 -1.51,2.87 -1.25,-0.07 -3.03,-0.71 -4.16,-0.75l-0.09 -0.01c-0.63,0.66 -1.34,1.24 -2.14,1.72 0.1,2.14 0.12,3.04 0.18,4.31 -0.74,0.24 -2.45,0.78 -3.09,0.97 -0.84,-0.94 -1.65,-2.65 -2.42,-3.48 -0.07,-0.08 -0.12,-0.15 -0.15,-0.21 -0.86,0.01 -1.71,-0.08 -2.53,-0.27l-0.06 0.07c-1.47,1.61 -2.1,2.27 -2.96,3.22 -0.7,-0.36 -2.29,-1.18 -2.87,-1.51 0.07,-1.25 0.7,-3.03 0.75,-4.16 0,-0.15 0.03,-0.26 0.07,-0.34 -0.59,-0.56 -1.12,-1.2 -1.58,-1.9l-0.14 0.01c-2.18,0.1 -3.09,0.12 -4.37,0.18 -0.24,-0.74 -0.79,-2.45 -0.97,-3.09 0.94,-0.84 2.65,-1.65 3.48,-2.42 0.09,-0.09 0.18,-0.14 0.26,-0.17 -0.04,-0.86 0.04,-1.7 0.2,-2.52l-0.05 -0.05c-1.62,-1.47 -2.27,-2.1 -3.22,-2.96 0.36,-0.7 1.18,-2.29 1.5,-2.87 1.26,0.07 3.04,0.71 4.17,0.75 0.07,0 0.13,0.01 0.18,0.02 0.6,-0.66 1.28,-1.26 2.04,-1.76 -0.1,-2.12 -0.12,-3.02 -0.17,-4.28 0.74,-0.24 2.45,-0.79 3.09,-0.97 0.84,0.94 1.65,2.65 2.41,3.48zm-1.72 3.76c3.95,-1.26 8.17,0.93 9.43,4.88 1.26,3.95 -0.92,8.17 -4.87,9.43 -3.95,1.26 -8.18,-0.92 -9.44,-4.87 -1.26,-3.95 0.93,-8.18 4.88,-9.44zm-12.24 104.75c6.84,0 12.39,5.55 12.39,12.39 0,6.84 -5.55,12.39 -12.39,12.39 -6.85,0 -12.39,-5.55 -12.39,-12.39 0,-6.84 5.54,-12.39 12.39,-12.39z" />
                    </clipPath>
                </defs>
                <g id="Capa_x0020_1">
                    <metadata id="CorelCorpID_0Corel-Layer" />
                    <g>
                    </g>
                    <g style="clip-path:url(#id0)">
                        <g>
                            <polygon class="fil0" points="215.19,660.36 427.1,514.51 620.49,761.06 408.58,906.91 " />
                        </g>
                    </g>
                    <path class="fil1 str0"
                        d="M772.78 686.2c1.58,0.4 3.08,1.02 4.46,1.81 2.87,-1.66 4.16,-2.36 5.92,-3.38 0.92,0.92 3.01,3 3.76,3.81 -0.71,1.88 -2.52,4.27 -3.2,6.01 0.83,1.43 1.47,2.98 1.89,4.62 3.14,0.85 4.54,1.26 6.49,1.78 0,1.29 0,4.25 -0.03,5.35 -1.86,0.84 -4.86,1.25 -6.57,2.01 -0.45,1.59 -1.11,3.09 -1.95,4.47 1.67,2.9 2.37,4.19 3.4,5.96 -0.92,0.91 -3.01,3 -3.81,3.76 -1.95,-0.74 -4.42,-2.64 -6.18,-3.27l-0.13 -0.06c-1.32,0.72 -2.73,1.27 -4.22,1.64 -0.92,3.41 -1.34,4.83 -1.88,6.86 -1.29,0 -4.25,0 -5.35,-0.03 -0.86,-1.9 -1.26,-4.99 -2.06,-6.68 -0.07,-0.15 -0.11,-0.29 -0.13,-0.41 -1.36,-0.41 -2.65,-0.98 -3.85,-1.68l-0.12 0.07c-3.13,1.8 -4.44,2.52 -6.28,3.58 -0.91,-0.91 -3,-3 -3.76,-3.8 0.74,-1.95 2.64,-4.43 3.27,-6.18 0.08,-0.23 0.18,-0.39 0.29,-0.49 -0.65,-1.19 -1.17,-2.46 -1.54,-3.79l-0.22 -0.05c-3.49,-0.94 -4.92,-1.36 -6.97,-1.91 0,-1.29 0,-4.25 0.03,-5.35 1.9,-0.85 4.99,-1.26 6.68,-2.05 0.19,-0.09 0.36,-0.14 0.5,-0.15 0.37,-1.36 0.91,-2.65 1.58,-3.86l-0.06 -0.09c-1.81,-3.13 -2.52,-4.45 -3.58,-6.29 0.91,-0.91 3,-3 3.8,-3.76 1.95,0.74 4.42,2.64 6.18,3.28 0.11,0.03 0.2,0.07 0.27,0.12 1.28,-0.74 2.65,-1.33 4.1,-1.74 0.91,-3.39 1.33,-4.81 1.87,-6.83 1.29,0 4.24,0 5.35,0.03 0.85,1.9 1.26,4.99 2.05,6.69zm-26.57 -16.93l-0.39 0.39 -0.97 0.97 -0.98 0.98 -0.98 0.98 -0.97 0.97 -0.98 0.98 -0.98 0.97 -0.97 0.98 -0.98 0.98 -0.97 0.97 -0.98 0.98 -0.98 0.98 -0.97 0.97 -0.98 0.98 -0.97 0.97 -0.98 0.98 -0.98 0.98 -0.97 0.97 -0.98 0.98 -0.98 0.97 -0.97 0.98 -0.98 0.98 -0.97 0.97 -0.98 0.98 -0.98 0.97 -0.97 0.98 -0.98 0.98 -0.98 0.97 -0.97 0.98 -0.98 0.98 -0.97 0.97 -0.98 0.98 -0.98 0.98 -0.97 0.97 -0.98 0.98 -0.97 0.97 -0.98 0.98 -0.98 0.98 -0.97 0.97 -0.98 0.98 -0.98 0.97 -0.97 0.98 -0.98 0.98 -0.97 0.97 -0.98 0.98 -0.98 0.97 -0.97 0.98 -0.98 0.98 -0.97 0.97 -0.98 0.98 -0.98 0.98 -0.97 0.97 -0.19 0.18c-3.85,3.87 -8.64,9.1 -8.84,19.41 -0.09,4.49 -2.2,8.88 -5.63,12.31 -4.57,4.57 -10.85,6.38 -16.78,5.44l12.66 -12.66c2.55,-2.55 0.11,-6.95 -0.83,-10.44 -0.34,-1.28 -3,-3.86 -4.86,-4.76 -3.33,-1.6 -7.87,-3.45 -10.38,-0.94l-12.69 12.7c-0.94,-5.93 0.87,-12.21 5.44,-16.78 3.35,-3.35 7.62,-5.29 12.01,-5.61 11.16,-0.81 17.78,-6.07 20.22,-8.49l0.12 -0.11 0.39 -0.39 0.97 -0.97 0.98 -0.98 0.97 -0.98 0.98 -0.97 0.98 -0.98 0.97 -0.97 0.98 -0.98 0.98 -0.98 0.97 -0.97 0.98 -0.98 0.97 -0.98 0.98 -0.97 0.98 -0.98 0.97 -0.97 0.98 -0.98 0.97 -0.98 0.98 -0.97 0.98 -0.98 0.97 -0.97 0.98 -0.98 0.97 -0.98 0.98 -0.97 0.98 -0.98 0.97 -0.98 0.98 -0.97 0.98 -0.98 0.97 -0.97 0.98 -0.98 0.97 -0.98 0.98 -0.97 0.98 -0.98 0.97 -0.97 0.98 -0.98 0.98 -0.98 0.97 -0.97 0.98 -0.98 0.97 -0.98 0.98 -0.97 0.98 -0.98 0.97 -0.97 0.98 -0.98 0.98 -0.98 0.97 -0.97 0.98 -0.98 0.97 -0.97 0.98 -0.98 0.98 -0.98 0.97 -0.97 0.98 -0.98 0.97 -0.98 0.98 -0.97 0.18 -0.18c3.86,-3.87 8.65,-9.1 8.85,-19.41 0.09,-4.49 2.2,-8.88 5.63,-12.31 4.57,-4.57 10.85,-6.38 16.78,-5.44l-12.66 12.66c-2.55,2.55 -0.11,6.95 0.82,10.43 0.35,1.29 3,3.87 4.87,4.77 3.33,1.6 7.87,3.45 10.38,0.94l12.69 -12.7c0.94,5.93 -0.87,12.21 -5.44,16.78 -3.35,3.35 -7.62,5.29 -12.01,5.61 -11.16,0.81 -17.78,6.07 -20.23,8.49l-0.11 0.11zm-6.06 -70.78l4.14 4.14c0.76,0.76 0.07,2.85 -0.65,3.64l-13.28 14.38 -3.79 0.24 -4.77 -4.77 4.77 4.77 -38.69 38.69 1.01 1c0.84,0.84 0.84,2.21 0,3.05l-0.24 0.24c-0.84,0.84 -2.11,0.94 -2.7,0.35 -0.83,-0.83 -1.87,0.17 -2.61,0.91l-0.95 0.95c1.51,2.38 1.23,5.59 -0.84,7.65l-46.37 46.38c-2.4,2.39 -6.32,2.39 -8.72,0l-4.66 -4.67c-2.4,-2.4 -2.4,-6.32 0,-8.71l46.37 -46.38c2.34,-2.33 6.13,-2.39 8.54,-0.16l0.87 -0.88c0.86,-0.85 1.65,-1.81 0.65,-2.81 -0.6,-0.6 -0.52,-1.9 0.32,-2.74l0.23 -0.23c0.84,-0.84 2.22,-0.84 3.06,0l1.27 1.27 38.69 -38.68 0.14 -3.89 14.87 -12.86c0.79,-0.69 2.6,-1.61 3.34,-0.88zm-18.72 -48.4l70.3 0c14.49,0 26.35,11.86 26.35,26.36l0 7.06 1.71 0c1.01,0 1.84,0.83 1.84,1.84l0 21.04c0,1.01 -0.83,1.84 -1.84,1.84l-1.71 0 0 5.95 1.71 0c1.01,0 1.84,0.83 1.84,1.84l0 9.27c0,1.01 -0.83,1.84 -1.84,1.84l-1.71 0 0 105.83c0,15.42 -12.62,28.04 -28.04,28.04l-68.61 0c-14.17,0 -25.97,-10.65 -27.79,-24.34 -0.73,-5.45 3.45,-9.5 7.43,-13.05l0 10.91c0,10.52 8.61,19.12 19.13,19.12l71.07 0c10.52,0 19.13,-8.6 19.13,-19.12l0 -157.94c0,-10.52 -8.61,-19.13 -19.13,-19.13l-71.07 0c-10.52,0 -19.13,8.61 -19.13,19.13l0 51.7 -7.68 7.95 0 -58.1c0,-15.42 12.62,-28.04 28.04,-28.04zm-28.04 143.7l0 -31.15 7.68 -8.58 0 32.72 -7.68 7.01zm88.75 -111.05c0.99,-0.06 1.97,0.02 2.91,0.23 1.35,-1.49 1.97,-2.13 2.8,-3.04 0.69,0.36 2.29,1.18 2.87,1.5 -0.07,1.22 -0.67,2.93 -0.75,4.06 0.75,0.67 1.41,1.45 1.95,2.32 1.97,-0.09 2.85,-0.11 4.07,-0.16 0.24,0.74 0.78,2.45 0.97,3.09 -0.92,0.82 -2.58,1.61 -3.43,2.37 0.04,1 -0.06,1.98 -0.3,2.94 1.5,1.36 2.14,1.98 3.06,2.81 -0.36,0.7 -1.18,2.29 -1.51,2.87 -1.25,-0.07 -3.03,-0.71 -4.16,-0.75l-0.09 -0.01c-0.63,0.66 -1.34,1.24 -2.14,1.72 0.1,2.14 0.12,3.04 0.18,4.31 -0.74,0.24 -2.45,0.78 -3.09,0.97 -0.84,-0.94 -1.65,-2.65 -2.42,-3.48 -0.07,-0.08 -0.12,-0.15 -0.15,-0.21 -0.86,0.01 -1.71,-0.08 -2.53,-0.27l-0.06 0.07c-1.47,1.61 -2.1,2.27 -2.96,3.22 -0.7,-0.36 -2.29,-1.18 -2.87,-1.51 0.07,-1.25 0.7,-3.03 0.75,-4.16 0,-0.15 0.03,-0.26 0.07,-0.34 -0.59,-0.56 -1.12,-1.2 -1.58,-1.9l-0.14 0.01c-2.18,0.1 -3.09,0.12 -4.37,0.18 -0.24,-0.74 -0.79,-2.45 -0.97,-3.09 0.94,-0.84 2.65,-1.65 3.48,-2.42 0.09,-0.09 0.18,-0.14 0.26,-0.17 -0.04,-0.86 0.04,-1.7 0.2,-2.52l-0.05 -0.05c-1.62,-1.47 -2.27,-2.1 -3.22,-2.96 0.36,-0.7 1.18,-2.29 1.5,-2.87 1.26,0.07 3.04,0.71 4.17,0.75 0.07,0 0.13,0.01 0.18,0.02 0.6,-0.66 1.28,-1.26 2.04,-1.76 -0.1,-2.12 -0.12,-3.02 -0.17,-4.28 0.74,-0.24 2.45,-0.79 3.09,-0.97 0.84,0.94 1.65,2.65 2.41,3.48zm-1.72 3.76c3.95,-1.26 8.17,0.93 9.43,4.88 1.26,3.95 -0.92,8.17 -4.87,9.43 -3.95,1.26 -8.18,-0.92 -9.44,-4.87 -1.26,-3.95 0.93,-8.18 4.88,-9.44zm-12.24 104.75c6.84,0 12.39,5.55 12.39,12.39 0,6.84 -5.55,12.39 -12.39,12.39 -6.85,0 -12.39,-5.55 -12.39,-12.39 0,-6.84 5.54,-12.39 12.39,-12.39z" />
                </g>
            </svg>