<?xml version="1.0" encoding="UTF-8"?>
<!DOCTYPE svg PUBLIC "-//W3C//DTD SVG 1.1//EN" "http://www.w3.org/Graphics/SVG/1.1/DTD/svg11.dtd">
<svg xmlns="http://www.w3.org/2000/svg" version="1.1" width="512px" height="512px" style="shape-rendering:geometricPrecision; text-rendering:geometricPrecision; image-rendering:optimizeQuality; fill-rule:evenodd; clip-rule:evenodd" xmlns:xlink="http://www.w3.org/1999/xlink">
<g><path style="opacity:1" fill="#575757" d="M 241.5,-0.5 C 250.833,-0.5 260.167,-0.5 269.5,-0.5C 314.966,10.6441 339.633,39.6441 343.5,86.5C 342.7,107.742 335.7,126.575 322.5,143C 349.556,150.724 361.389,168.557 358,196.5C 350.697,218.913 335.197,230.246 311.5,230.5C 313.022,272.947 325.188,311.947 348,347.5C 351.381,351.759 354.881,355.926 358.5,360C 383.29,363.958 396.956,378.458 399.5,403.5C 399.162,410.346 397.495,416.846 394.5,423C 406.103,432.361 412.936,444.528 415,459.5C 415.667,472.5 415.667,485.5 415,498.5C 413.755,504.357 410.588,508.691 405.5,511.5C 305.5,511.5 205.5,511.5 105.5,511.5C 100.412,508.691 97.2454,504.357 96,498.5C 95.3333,485.5 95.3333,472.5 96,459.5C 98.0637,444.528 104.897,432.361 116.5,423C 107.762,402.16 111.762,384.16 128.5,369C 135.679,363.829 143.679,360.829 152.5,360C 171.231,338.375 184.065,313.541 191,285.5C 195.567,267.429 198.401,249.096 199.5,230.5C 171.056,229.389 155.056,214.723 151.5,186.5C 153.561,163.272 165.894,148.772 188.5,143C 161.14,106.22 160.64,69.0536 187,31.5C 201.65,14.651 219.816,3.98435 241.5,-0.5 Z"/></g>
<g><path style="opacity:1" fill="#fefefe" d="M 246.5,29.5 C 276.982,27.5059 298.149,40.5059 310,68.5C 317.628,102.745 305.461,126.912 273.5,141C 239.255,148.628 215.088,136.461 201,104.5C 193.935,76.0178 202.435,53.5178 226.5,37C 232.96,33.5884 239.627,31.0884 246.5,29.5 Z"/></g>
<g><path style="opacity:1" fill="#fdfdfd" d="M 190.5,173.5 C 233.501,173.333 276.501,173.5 319.5,174C 328.063,178.005 330.563,184.505 327,193.5C 325.039,196.135 322.539,197.969 319.5,199C 276.833,199.667 234.167,199.667 191.5,199C 182.604,195.082 180.104,188.582 184,179.5C 186.063,177.266 188.229,175.266 190.5,173.5 Z"/></g>
<g><path style="opacity:1" fill="#fefefe" d="M 230.5,229.5 C 247.411,229.175 264.244,229.508 281,230.5C 282.768,276.79 295.601,319.623 319.5,359C 319.167,359.333 318.833,359.667 318.5,360C 276.023,360.994 233.69,360.66 191.5,359C 208.153,332.387 219.32,303.553 225,272.5C 227.364,258.181 229.197,243.847 230.5,229.5 Z"/></g>
<g><path style="opacity:1" fill="#fdfdfd" d="M 150.5,390.5 C 220.167,390.333 289.834,390.5 359.5,391C 368.063,395.005 370.563,401.505 367,410.5C 365.039,413.135 362.539,414.969 359.5,416C 290.167,416.667 220.833,416.667 151.5,416C 142.93,411.969 140.43,405.469 144,396.5C 146.063,394.266 148.229,392.266 150.5,390.5 Z"/></g>
<g><path style="opacity:1" fill="#fdfdfd" d="M 138.5,446.5 C 216.501,446.333 294.501,446.5 372.5,447C 377.185,448.35 380.685,451.183 383,455.5C 384.572,463.755 384.905,472.089 384,480.5C 298.57,481.665 213.07,481.832 127.5,481C 126.353,473.58 126.187,466.08 127,458.5C 129.019,452.65 132.852,448.65 138.5,446.5 Z"/></g>
</svg>
