<?xml version="1.0" encoding="UTF-8"?>
<!DOCTYPE svg PUBLIC "-//W3C//DTD SVG 1.1//EN" "http://www.w3.org/Graphics/SVG/1.1/DTD/svg11.dtd">
<svg xmlns="http://www.w3.org/2000/svg" version="1.1" width="512px" height="512px" style="shape-rendering:geometricPrecision; text-rendering:geometricPrecision; image-rendering:optimizeQuality; fill-rule:evenodd; clip-rule:evenodd" xmlns:xlink="http://www.w3.org/1999/xlink">
<g><path style="opacity:1" fill="#575757" d="M 247.5,-0.5 C 252.5,-0.5 257.5,-0.5 262.5,-0.5C 273.851,3.81049 280.185,12.1438 281.5,24.5C 280.515,30.6162 278.682,36.2829 276,41.5C 289.869,45.6702 299.702,54.3369 305.5,67.5C 310.802,68.3295 316.136,68.8295 321.5,69C 324.033,70.0333 325.699,71.8666 326.5,74.5C 315.282,91.2697 306.449,109.27 300,128.5C 298.292,135.081 297.125,141.748 296.5,148.5C 299.777,148.216 302.943,148.549 306,149.5C 306.667,152.833 306.667,156.167 306,159.5C 302.871,160.13 299.704,160.796 296.5,161.5C 298.898,171.386 304.231,179.22 312.5,185C 316.809,186.985 320.976,189.152 325,191.5C 325.667,200.167 325.667,208.833 325,217.5C 324.097,218.701 322.931,219.535 321.5,220C 309.838,220.5 298.171,220.667 286.5,220.5C 287.317,253.435 295.484,284.435 311,313.5C 319.763,327.259 328.097,341.259 336,355.5C 336.333,365.5 336.667,375.5 337,385.5C 349.667,399.5 362.333,413.5 375,427.5C 380.648,436.153 381.981,445.487 379,455.5C 376.167,462.333 371.333,467.167 364.5,470C 370.354,474.856 375.854,480.023 381,485.5C 381.667,492.833 381.667,500.167 381,507.5C 380.338,508.984 379.504,510.317 378.5,511.5C 296.5,511.5 214.5,511.5 132.5,511.5C 131.496,510.317 130.662,508.984 130,507.5C 129.333,500.167 129.333,492.833 130,485.5C 135.146,480.023 140.646,474.856 146.5,470C 133.138,463.109 127.972,452.276 131,437.5C 132.059,434.382 133.392,431.382 135,428.5C 148,414.167 161,399.833 174,385.5C 174.333,375.5 174.667,365.5 175,355.5C 183.333,341.5 191.667,327.5 200,313.5C 215.516,284.437 223.683,253.437 224.5,220.5C 212.829,220.667 201.162,220.5 189.5,220C 187.333,219.167 185.833,217.667 185,215.5C 184.066,207.395 184.399,199.395 186,191.5C 193.455,188.378 200.121,184.045 206,178.5C 209.124,172.588 211.957,166.588 214.5,160.5C 211.482,160.665 208.482,160.498 205.5,160C 204.167,156.333 204.167,152.667 205.5,149C 208.482,148.502 211.482,148.335 214.5,148.5C 213.371,135.651 210.204,123.318 205,111.5C 199.181,98.5226 192.348,86.1893 184.5,74.5C 185.301,71.8666 186.967,70.0333 189.5,69C 194.864,68.8295 200.198,68.3295 205.5,67.5C 211.298,54.3369 221.131,45.6702 235,41.5C 225.261,23.3652 229.427,9.36519 247.5,-0.5 Z"/></g>
<g><path style="opacity:1" fill="#fdfdfd" d="M 250.5,9.5 C 267.765,9.25669 273.598,17.2567 268,33.5C 261.749,40.0107 254.582,41.1773 246.5,37C 239.989,30.7488 238.823,23.5821 243,15.5C 245.114,12.8792 247.614,10.8792 250.5,9.5 Z"/></g>
<g><path style="opacity:1" fill="#fdfdfd" d="M 245.5,49.5 C 263.336,46.8374 278.836,51.5041 292,63.5C 294.208,66.5537 295.208,69.8871 295,73.5C 289.333,80.5 283.667,87.5 278,94.5C 276.615,93.4495 275.615,92.1161 275,90.5C 273.06,84.0128 270.727,77.6794 268,71.5C 267.25,70.8742 266.416,70.3742 265.5,70C 258.06,69.0722 250.726,69.4055 243.5,71C 240.416,77.2481 237.916,83.7481 236,90.5C 235.385,92.1161 234.385,93.4495 233,94.5C 227.904,87.9814 222.571,81.648 217,75.5C 215.569,68.8236 217.735,63.3236 223.5,59C 230.336,54.4087 237.669,51.2421 245.5,49.5 Z"/></g>
<g><path style="opacity:1" fill="#fdfdfd" d="M 201.5,79.5 C 203.857,79.3367 206.19,79.5034 208.5,80C 216.378,88.8761 223.878,98.0428 231,107.5C 233.418,109.68 236.084,110.013 239,108.5C 242.456,98.7893 246.289,89.2893 250.5,80C 253.833,79.3333 257.167,79.3333 260.5,80C 264.574,88.5446 268.074,97.378 271,106.5C 273.528,110.085 276.528,110.418 280,107.5C 287.122,98.0428 294.622,88.8761 302.5,80C 305.379,79.1264 308.045,79.4597 310.5,81C 297.18,101.626 289.013,124.126 286,148.5C 265.906,149.659 245.74,149.826 225.5,149C 222.124,124.543 213.791,101.876 200.5,81C 201.056,80.6174 201.389,80.1174 201.5,79.5 Z"/></g>
<g><path style="opacity:1" fill="#fdfdfd" d="M 228.5,159.5 C 247.503,159.333 266.503,159.5 285.5,160C 288.903,177.739 298.736,190.573 315,198.5C 315.667,201.833 315.667,205.167 315,208.5C 275.571,209.663 236.071,209.83 196.5,209C 195.378,205.591 195.211,202.091 196,198.5C 212.019,189.779 222.853,176.779 228.5,159.5 Z"/></g>
<g><path style="opacity:1" fill="#fdfdfd" d="M 236.5,219.5 C 249.746,219.177 262.913,219.511 276,220.5C 277.169,255.176 285.835,287.842 302,318.5C 309.667,331.167 317.333,343.833 325,356.5C 325.667,364.5 325.667,372.5 325,380.5C 278.667,381.833 232.333,381.833 186,380.5C 185.191,374.251 185.358,368.084 186.5,362C 227.832,361.5 269.165,361.333 310.5,361.5C 310.5,358.167 310.5,354.833 310.5,351.5C 270.022,351.994 229.688,351.494 189.5,350C 217.744,311.107 233.411,267.607 236.5,219.5 Z"/></g>
<g><path style="opacity:1" fill="#fefefe" d="M 181.5,391.5 C 230.834,391.333 280.168,391.5 329.5,392C 342.216,406.594 355.049,421.094 368,435.5C 373.522,446.832 370.689,455.332 359.5,461C 290.167,461.667 220.833,461.667 151.5,461C 142.258,456.682 138.758,449.515 141,439.5C 142.271,436.567 143.938,433.901 146,431.5C 158.041,418.295 169.875,404.962 181.5,391.5 Z"/></g>
<g><path style="opacity:1" fill="#fdfdfd" d="M 161.5,471.5 C 224.168,471.333 286.834,471.5 349.5,472C 356.425,477.38 363.258,482.88 370,488.5C 370.667,492.5 370.667,496.5 370,500.5C 293.903,501.665 217.737,501.831 141.5,501C 140.371,496.921 140.204,492.755 141,488.5C 147.996,482.934 154.83,477.267 161.5,471.5 Z"/></g>
</svg>
