<?xml version="1.0" encoding="UTF-8"?>
<!DOCTYPE svg PUBLIC "-//W3C//DTD SVG 1.1//EN" "http://www.w3.org/Graphics/SVG/1.1/DTD/svg11.dtd">
<svg xmlns="http://www.w3.org/2000/svg" version="1.1" width="512px" height="512px" style="shape-rendering:geometricPrecision; text-rendering:geometricPrecision; image-rendering:optimizeQuality; fill-rule:evenodd; clip-rule:evenodd" xmlns:xlink="http://www.w3.org/1999/xlink">
<g><path style="opacity:1" fill="#575757" d="M 247.5,-0.5 C 252.5,-0.5 257.5,-0.5 262.5,-0.5C 273.851,3.81049 280.185,12.1438 281.5,24.5C 280.515,30.6162 278.682,36.2829 276,41.5C 289.869,45.6702 299.702,54.3369 305.5,67.5C 310.802,68.3295 316.136,68.8295 321.5,69C 324.033,70.0333 325.699,71.8666 326.5,74.5C 315.282,91.2697 306.449,109.27 300,128.5C 298.292,135.081 297.125,141.748 296.5,148.5C 299.777,148.216 302.943,148.549 306,149.5C 306.667,152.833 306.667,156.167 306,159.5C 302.871,160.13 299.704,160.796 296.5,161.5C 298.898,171.386 304.231,179.22 312.5,185C 316.809,186.985 320.976,189.152 325,191.5C 325.667,200.167 325.667,208.833 325,217.5C 324.097,218.701 322.931,219.535 321.5,220C 309.838,220.5 298.171,220.667 286.5,220.5C 287.317,253.435 295.484,284.435 311,313.5C 319.763,327.259 328.097,341.259 336,355.5C 336.333,365.5 336.667,375.5 337,385.5C 349.667,399.5 362.333,413.5 375,427.5C 380.648,436.153 381.981,445.487 379,455.5C 376.167,462.333 371.333,467.167 364.5,470C 370.354,474.856 375.854,480.023 381,485.5C 381.667,492.833 381.667,500.167 381,507.5C 380.338,508.984 379.504,510.317 378.5,511.5C 296.5,511.5 214.5,511.5 132.5,511.5C 131.496,510.317 130.662,508.984 130,507.5C 129.333,500.167 129.333,492.833 130,485.5C 135.146,480.023 140.646,474.856 146.5,470C 133.138,463.109 127.972,452.276 131,437.5C 132.059,434.382 133.392,431.382 135,428.5C 148,414.167 161,399.833 174,385.5C 174.333,375.5 174.667,365.5 175,355.5C 183.333,341.5 191.667,327.5 200,313.5C 215.516,284.437 223.683,253.437 224.5,220.5C 212.829,220.667 201.162,220.5 189.5,220C 187.333,219.167 185.833,217.667 185,215.5C 184.066,207.395 184.399,199.395 186,191.5C 193.455,188.378 200.121,184.045 206,178.5C 209.124,172.588 211.957,166.588 214.5,160.5C 211.482,160.665 208.482,160.498 205.5,160C 204.167,156.333 204.167,152.667 205.5,149C 208.482,148.502 211.482,148.335 214.5,148.5C 213.371,135.651 210.204,123.318 205,111.5C 199.181,98.5226 192.348,86.1893 184.5,74.5C 185.301,71.8666 186.967,70.0333 189.5,69C 194.864,68.8295 200.198,68.3295 205.5,67.5C 211.298,54.3369 221.131,45.6702 235,41.5C 225.261,23.3652 229.427,9.36519 247.5,-0.5 Z"/></g>
<g><path style="opacity:1" fill="#050505" d="M 250.5,8.5 C 265.314,7.81285 272.147,14.8129 271,29.5C 265.638,40.4313 257.472,43.2646 246.5,38C 239.086,31.7052 237.586,24.2052 242,15.5C 244.441,12.5464 247.275,10.2131 250.5,8.5 Z"/></g>
<g><path style="opacity:1" fill="#050505" d="M 245.5,48.5 C 263.896,45.8005 279.73,50.8005 293,63.5C 295.208,66.5537 296.208,69.8871 296,73.5C 290,80.8333 284,88.1667 278,95.5C 277,94.5 276,93.5 275,92.5C 272.667,86.1667 270.333,79.8333 268,73.5C 267.5,72.3333 266.667,71.5 265.5,71C 258.45,70.2032 251.45,70.3699 244.5,71.5C 241.324,77.5222 238.824,83.8555 237,90.5C 236.047,92.4552 234.713,94.1218 233,95.5C 227.333,88.8333 221.667,82.1667 216,75.5C 214.12,71.195 214.786,67.195 218,63.5C 225.734,55.7193 234.9,50.7193 245.5,48.5 Z"/></g>
<g><path style="opacity:1" fill="#040404" d="M 201.5,78.5 C 203.857,78.3367 206.19,78.5034 208.5,79C 216.711,88.2088 224.544,97.7088 232,107.5C 234.139,108.769 236.305,108.769 238.5,107.5C 241.765,98.8717 244.932,90.205 248,81.5C 248.833,80.6667 249.667,79.8333 250.5,79C 253.833,78.3333 257.167,78.3333 260.5,79C 261.333,79.8333 262.167,80.6667 263,81.5C 266,89.8333 269,98.1667 272,106.5C 274.025,108.725 276.358,109.059 279,107.5C 286.456,97.7088 294.289,88.2088 302.5,79C 305.968,77.9187 308.968,78.5854 311.5,81C 298.266,102.379 289.6,125.379 285.5,150C 265.5,150.667 245.5,150.667 225.5,150C 221.4,125.379 212.734,102.379 199.5,81C 200.381,80.2917 201.047,79.4584 201.5,78.5 Z"/></g>
<g><path style="opacity:1" fill="#030303" d="M 228.5,158.5 C 247.503,158.333 266.503,158.5 285.5,159C 288.481,171.624 294.814,182.291 304.5,191C 308.589,193.127 312.423,195.627 316,198.5C 316.667,201.833 316.667,205.167 316,208.5C 315.5,209 315,209.5 314.5,210C 275.167,210.667 235.833,210.667 196.5,210C 196,209.5 195.5,209 195,208.5C 194.333,205.167 194.333,201.833 195,198.5C 204.867,192.97 213.2,185.637 220,176.5C 222.59,170.322 225.424,164.322 228.5,158.5 Z"/></g>
<g><path style="opacity:1" fill="#020202" d="M 186.5,361.5 C 227.833,361.5 269.167,361.5 310.5,361.5C 310.5,358.167 310.5,354.833 310.5,351.5C 270.5,351.5 230.5,351.5 190.5,351.5C 189.711,351.217 189.044,350.717 188.5,350C 216.58,310.76 232.58,267.094 236.5,219C 249.5,218.333 262.5,218.333 275.5,219C 277.86,253.929 287.027,287.096 303,318.5C 310.667,331.167 318.333,343.833 326,356.5C 326.667,364.5 326.667,372.5 326,380.5C 325.5,381 325,381.5 324.5,382C 278.5,382.667 232.5,382.667 186.5,382C 186,381.5 185.5,381 185,380.5C 184.333,374.5 184.333,368.5 185,362.5C 185.383,361.944 185.883,361.611 186.5,361.5 Z"/></g>
<g><path style="opacity:1" fill="#242524" d="M 190.5,351.5 C 230.5,351.5 270.5,351.5 310.5,351.5C 310.5,354.833 310.5,358.167 310.5,361.5C 269.167,361.5 227.833,361.5 186.5,361.5C 227.33,360.501 268.33,360.168 309.5,360.5C 309.5,357.833 309.5,355.167 309.5,352.5C 269.663,352.832 229.996,352.499 190.5,351.5 Z"/></g>
<g><path style="opacity:1" fill="#010101" d="M 181.5,390.5 C 230.834,390.333 280.168,390.5 329.5,391C 342.784,405.739 355.951,420.573 369,435.5C 374.468,447.402 371.302,456.235 359.5,462C 290.167,462.667 220.833,462.667 151.5,462C 138.097,454.255 135.93,444.088 145,431.5C 157.375,417.962 169.541,404.296 181.5,390.5 Z"/></g>
<g><path style="opacity:1" fill="#030303" d="M 161.5,470.5 C 224.168,470.333 286.834,470.5 349.5,471C 356.942,476.474 364.109,482.308 371,488.5C 371.667,492.5 371.667,496.5 371,500.5C 370.5,501 370,501.5 369.5,502C 293.5,502.667 217.5,502.667 141.5,502C 141,501.5 140.5,501 140,500.5C 139.333,496.5 139.333,492.5 140,488.5C 147.145,482.363 154.312,476.363 161.5,470.5 Z"/></g>
</svg>
