<?xml version="1.0" encoding="UTF-8"?>
<!DOCTYPE svg PUBLIC "-//W3C//DTD SVG 1.1//EN" "http://www.w3.org/Graphics/SVG/1.1/DTD/svg11.dtd">
<svg xmlns="http://www.w3.org/2000/svg" version="1.1" width="512px" height="512px" style="shape-rendering:geometricPrecision; text-rendering:geometricPrecision; image-rendering:optimizeQuality; fill-rule:evenodd; clip-rule:evenodd" xmlns:xlink="http://www.w3.org/1999/xlink">
<g><path style="opacity:0.999" fill="#575757" d="M 247.5,-0.5 C 252.833,-0.5 258.167,-0.5 263.5,-0.5C 276.031,4.54823 282.031,13.8816 281.5,27.5C 298.599,25.7108 306.599,33.3774 305.5,50.5C 306.528,67.4724 298.528,75.4724 281.5,74.5C 281.5,79.1667 281.5,83.8333 281.5,88.5C 289.507,88.3336 297.507,88.5003 305.5,89C 319.464,93.5952 324.131,102.929 319.5,117C 324.69,117.19 327.69,119.856 328.5,125C 328.205,127.923 326.871,130.257 324.5,132C 321.697,132.678 319.197,133.844 317,135.5C 314.774,150.756 312.274,165.923 309.5,181C 323.494,184.333 329.661,193.166 328,207.5C 325.035,218.557 317.868,224.224 306.5,224.5C 305.298,242.499 305.465,260.499 307,278.5C 309.512,282.437 309.679,286.604 307.5,291C 308.2,293.472 309.2,295.805 310.5,298C 308.612,302.67 308.612,307.17 310.5,311.5C 311.812,338.387 317.479,364.387 327.5,389.5C 343.026,388.328 353.192,394.994 358,409.5C 358.667,418.5 358.667,427.5 358,436.5C 356.706,444.092 352.706,449.759 346,453.5C 345.501,457.821 345.334,462.154 345.5,466.5C 371.985,463.153 382.152,474.486 376,500.5C 373.643,505.355 370.143,509.021 365.5,511.5C 292.167,511.5 218.833,511.5 145.5,511.5C 136.69,506.72 132.69,499.22 133.5,489C 132.575,477.955 137.241,470.622 147.5,467C 153.491,466.501 159.491,466.334 165.5,466.5C 165.666,462.154 165.499,457.821 165,453.5C 158.294,449.759 154.294,444.092 153,436.5C 152.333,427.5 152.333,418.5 153,409.5C 154.967,400.199 160.467,394.032 169.5,391C 174.175,390.203 178.841,389.37 183.5,388.5C 194.532,359.511 201.032,329.511 203,298.5C 204.969,273.849 205.469,249.182 204.5,224.5C 188.822,222.981 181.655,214.315 183,198.5C 185.611,188.888 191.778,183.055 201.5,181C 198.726,165.923 196.226,150.756 194,135.5C 191.803,133.844 189.303,132.678 186.5,132C 181.167,127.333 181.167,122.667 186.5,118C 188.167,117.667 189.833,117.333 191.5,117C 186.869,102.929 191.536,93.5952 205.5,89C 213.493,88.5003 221.493,88.3336 229.5,88.5C 229.5,83.8333 229.5,79.1667 229.5,74.5C 212.472,75.4724 204.472,67.4724 205.5,50.5C 204.682,33.6511 212.682,25.9845 229.5,27.5C 228.969,13.8816 234.969,4.54823 247.5,-0.5 Z"/></g>
<g><path style="opacity:1" fill="#000000" d="M 251.5,14.5 C 257.07,13.4161 261.57,15.0827 265,19.5C 266.245,25.3902 266.912,31.3902 267,37.5C 267.785,39.286 268.951,40.786 270.5,42C 276.5,42.3333 282.5,42.6667 288.5,43C 289,43.5 289.5,44 290,44.5C 290.799,49.0868 290.632,53.5868 289.5,58C 283.5,58.3333 277.5,58.6667 271.5,59C 270.069,59.4652 268.903,60.2986 268,61.5C 266.874,70.6442 266.041,79.8108 265.5,89C 258.833,89.6667 252.167,89.6667 245.5,89C 244.959,79.8108 244.126,70.6442 243,61.5C 242.097,60.2986 240.931,59.4652 239.5,59C 233.252,58.8117 227.085,58.3117 221,57.5C 220.333,53.1667 220.333,48.8333 221,44.5C 221.5,44 222,43.5 222.5,43C 228.5,42.6667 234.5,42.3333 240.5,42C 241.333,41.1667 242.167,40.3333 243,39.5C 244.245,33.6098 244.912,27.6098 245,21.5C 246.694,18.6424 248.861,16.309 251.5,14.5 Z"/></g>
<g><path style="opacity:1" fill="#010101" d="M 206.5,104.5 C 239.168,104.333 271.835,104.5 304.5,105C 305.823,109.426 305.49,113.76 303.5,118C 271.5,118.667 239.5,118.667 207.5,118C 205.468,113.593 205.135,109.093 206.5,104.5 Z"/></g>
<g><path style="opacity:1" fill="#000000" d="M 210.5,132.5 C 240.502,132.333 270.502,132.5 300.5,133C 301.097,134.062 301.43,135.228 301.5,136.5C 299.322,151.234 296.822,165.901 294,180.5C 268.572,181.661 243.072,181.828 217.5,181C 214.248,166.326 211.581,151.492 209.5,136.5C 209.623,135.075 209.957,133.742 210.5,132.5 Z"/></g>
<g><path style="opacity:1" fill="#010101" d="M 204.5,195.5 C 238.502,195.333 272.502,195.5 306.5,196C 314.153,198.938 315.153,203.272 309.5,209C 273.5,209.667 237.5,209.667 201.5,209C 195.993,203.155 196.993,198.655 204.5,195.5 Z"/></g>
<g><path style="opacity:1" fill="#000000" d="M 221.5,221.5 C 244.169,221.333 266.836,221.5 289.5,222C 290.333,222.833 291.167,223.667 292,224.5C 292.234,241.013 292.734,257.513 293.5,274C 293.349,276.197 293.015,278.364 292.5,280.5C 292.529,282.029 293.196,283.196 294.5,284C 293.643,284.689 292.977,285.522 292.5,286.5C 292.822,290.154 292.822,294.154 292.5,298.5C 296.163,316.776 299.663,335.776 303,355.5C 305.501,367.011 309.001,378.178 313.5,389C 312.5,390 311.5,391 310.5,392C 288.833,392.333 267.167,392.667 245.5,393C 242.339,395.079 241.672,397.913 243.5,401.5C 244.376,402.251 245.376,402.751 246.5,403C 276.833,403.333 307.167,403.667 337.5,404C 344.523,408.391 347.19,414.724 345.5,423C 347.101,430.872 344.767,437.205 338.5,442C 283.916,443.658 229.249,443.991 174.5,443C 171.705,441.207 169.205,439.04 167,436.5C 165.432,428.579 165.099,420.579 166,412.5C 167.061,409.438 168.894,406.938 171.5,405C 185.74,403.7 200.073,403.033 214.5,403C 218.441,401.094 219.441,398.094 217.5,394C 211.944,392.761 206.278,392.094 200.5,392C 199.5,391 198.5,390 197.5,389C 209.212,356.574 215.712,323.074 217,288.5C 218.03,267.179 218.697,245.846 219,224.5C 220.045,223.627 220.878,222.627 221.5,221.5 Z"/></g>
<g><path style="opacity:1" fill="#010101" d="M 181.5,455.5 C 230.834,455.333 280.168,455.5 329.5,456C 330.833,459.667 330.833,463.333 329.5,467C 280.167,467.667 230.833,467.667 181.5,467C 180.2,463.168 180.2,459.334 181.5,455.5 Z"/></g>
<g><path style="opacity:1" fill="#000000" d="M 150.5,480.5 C 220.501,480.333 290.501,480.5 360.5,481C 361,481.5 361.5,482 362,482.5C 362.667,486.833 362.667,491.167 362,495.5C 361.5,496 361,496.5 360.5,497C 290.607,497.373 220.607,497.373 150.5,497C 150,496.5 149.5,496 149,495.5C 147.955,490.215 148.455,485.215 150.5,480.5 Z"/></g>
</svg>
