<?xml version="1.0" encoding="UTF-8"?>
<!DOCTYPE svg PUBLIC "-//W3C//DTD SVG 1.1//EN" "http://www.w3.org/Graphics/SVG/1.1/DTD/svg11.dtd">
<svg xmlns="http://www.w3.org/2000/svg" version="1.1" width="512px" height="512px" style="shape-rendering:geometricPrecision; text-rendering:geometricPrecision; image-rendering:optimizeQuality; fill-rule:evenodd; clip-rule:evenodd" xmlns:xlink="http://www.w3.org/1999/xlink">
<g><path style="opacity:0.999" fill="#575757" d="M 247.5,-0.5 C 252.833,-0.5 258.167,-0.5 263.5,-0.5C 276.031,4.54823 282.031,13.8816 281.5,27.5C 298.599,25.7108 306.599,33.3774 305.5,50.5C 306.528,67.4724 298.528,75.4724 281.5,74.5C 281.5,79.1667 281.5,83.8333 281.5,88.5C 289.507,88.3336 297.507,88.5003 305.5,89C 319.464,93.5952 324.131,102.929 319.5,117C 324.69,117.19 327.69,119.856 328.5,125C 328.205,127.923 326.871,130.257 324.5,132C 321.697,132.678 319.197,133.844 317,135.5C 314.774,150.756 312.274,165.923 309.5,181C 323.494,184.333 329.661,193.166 328,207.5C 325.035,218.557 317.868,224.224 306.5,224.5C 305.298,242.499 305.465,260.499 307,278.5C 309.512,282.437 309.679,286.604 307.5,291C 308.2,293.472 309.2,295.805 310.5,298C 308.612,302.67 308.612,307.17 310.5,311.5C 311.812,338.387 317.479,364.387 327.5,389.5C 343.026,388.328 353.192,394.994 358,409.5C 358.667,418.5 358.667,427.5 358,436.5C 356.706,444.092 352.706,449.759 346,453.5C 345.501,457.821 345.334,462.154 345.5,466.5C 371.985,463.153 382.152,474.486 376,500.5C 373.643,505.355 370.143,509.021 365.5,511.5C 292.167,511.5 218.833,511.5 145.5,511.5C 136.69,506.72 132.69,499.22 133.5,489C 132.575,477.955 137.241,470.622 147.5,467C 153.491,466.501 159.491,466.334 165.5,466.5C 165.666,462.154 165.499,457.821 165,453.5C 158.294,449.759 154.294,444.092 153,436.5C 152.333,427.5 152.333,418.5 153,409.5C 154.967,400.199 160.467,394.032 169.5,391C 174.175,390.203 178.841,389.37 183.5,388.5C 194.532,359.511 201.032,329.511 203,298.5C 204.969,273.849 205.469,249.182 204.5,224.5C 188.822,222.981 181.655,214.315 183,198.5C 185.611,188.888 191.778,183.055 201.5,181C 198.726,165.923 196.226,150.756 194,135.5C 191.803,133.844 189.303,132.678 186.5,132C 181.167,127.333 181.167,122.667 186.5,118C 188.167,117.667 189.833,117.333 191.5,117C 186.869,102.929 191.536,93.5952 205.5,89C 213.493,88.5003 221.493,88.3336 229.5,88.5C 229.5,83.8333 229.5,79.1667 229.5,74.5C 212.472,75.4724 204.472,67.4724 205.5,50.5C 204.682,33.6511 212.682,25.9845 229.5,27.5C 228.969,13.8816 234.969,4.54823 247.5,-0.5 Z"/></g>
<g><path style="opacity:1" fill="#fdfdfd" d="M 251.5,13.5 C 257.661,12.3315 262.494,14.3315 266,19.5C 267.245,25.3902 267.912,31.3902 268,37.5C 268.465,38.9308 269.299,40.0975 270.5,41C 276.5,41.3333 282.5,41.6667 288.5,42C 289.333,42.8333 290.167,43.6667 291,44.5C 291.667,48.8333 291.667,53.1667 291,57.5C 290.5,58 290,58.5 289.5,59C 283.5,59.3333 277.5,59.6667 271.5,60C 270.584,60.3742 269.75,60.8742 269,61.5C 267.722,70.3991 267.055,79.3991 267,88.5C 266.5,89 266,89.5 265.5,90C 258.833,90.6667 252.167,90.6667 245.5,90C 245,89.5 244.5,89 244,88.5C 243.945,79.3991 243.278,70.3991 242,61.5C 241.25,60.8742 240.416,60.3742 239.5,60C 233.5,59.6667 227.5,59.3333 221.5,59C 221,58.5 220.5,58 220,57.5C 219.333,53.1667 219.333,48.8333 220,44.5C 220.833,43.6667 221.667,42.8333 222.5,42C 228.5,41.6667 234.5,41.3333 240.5,41C 241.701,40.0975 242.535,38.9308 243,37.5C 243.333,32.1667 243.667,26.8333 244,21.5C 246.028,18.3078 248.528,15.6411 251.5,13.5 Z"/></g>
<g><path style="opacity:1" fill="#fcfcfc" d="M 206.5,103.5 C 239.168,103.333 271.835,103.5 304.5,104C 306.007,105.473 306.674,107.307 306.5,109.5C 306.493,113.043 305.493,116.21 303.5,119C 271.5,119.667 239.5,119.667 207.5,119C 204.137,113.957 203.803,108.791 206.5,103.5 Z"/></g>
<g><path style="opacity:1" fill="#fdfdfd" d="M 210.5,131.5 C 240.502,131.333 270.502,131.5 300.5,132C 301.944,133.126 302.61,134.626 302.5,136.5C 300.322,151.234 297.822,165.901 295,180.5C 294.5,181 294,181.5 293.5,182C 268.167,182.667 242.833,182.667 217.5,182C 216.107,180.829 215.273,179.329 215,177.5C 212.88,163.826 210.713,150.159 208.5,136.5C 208.437,134.486 209.103,132.819 210.5,131.5 Z"/></g>
<g><path style="opacity:1" fill="#fcfcfc" d="M 204.5,194.5 C 238.502,194.333 272.502,194.5 306.5,195C 315.485,198.588 316.485,203.588 309.5,210C 273.5,210.667 237.5,210.667 201.5,210C 194.662,203.467 195.662,198.301 204.5,194.5 Z"/></g>
<g><path style="opacity:1" fill="#fefefe" d="M 221.5,220.5 C 244.169,220.333 266.836,220.5 289.5,221C 290.667,222.167 291.833,223.333 293,224.5C 293.028,254.623 294.362,284.623 297,314.5C 299.658,340.13 305.491,364.963 314.5,389C 313.167,390.333 311.833,391.667 310.5,393C 288.833,393.333 267.167,393.667 245.5,394C 243.582,395.77 243.082,397.937 244,400.5C 244.75,401.126 245.584,401.626 246.5,402C 276.833,402.333 307.167,402.667 337.5,403C 345.093,407.524 348.093,414.191 346.5,423C 348.13,431.452 345.464,438.118 338.5,443C 283.916,444.658 229.249,444.991 174.5,444C 171.37,441.872 168.537,439.372 166,436.5C 164.432,428.579 164.099,420.579 165,412.5C 166.4,409.098 168.567,406.264 171.5,404C 185.74,402.7 200.073,402.033 214.5,402C 217.548,400.27 218.214,397.77 216.5,394.5C 211.219,393.714 205.885,393.214 200.5,393C 199.167,391.667 197.833,390.333 196.5,389C 208.212,356.574 214.712,323.074 216,288.5C 217.03,267.179 217.697,245.846 218,224.5C 219.376,223.295 220.542,221.962 221.5,220.5 Z"/></g>
<g><path style="opacity:1" fill="#fcfcfc" d="M 181.5,454.5 C 230.834,454.333 280.168,454.5 329.5,455C 331.045,456.822 331.712,458.989 331.5,461.5C 331.712,464.011 331.045,466.178 329.5,468C 280.167,468.667 230.833,468.667 181.5,468C 178.867,463.501 178.867,459.001 181.5,454.5 Z"/></g>
<g><path style="opacity:1" fill="#fdfdfd" d="M 150.5,479.5 C 220.501,479.333 290.501,479.5 360.5,480C 363.013,482.396 364.013,485.396 363.5,489C 364.013,492.604 363.013,495.604 360.5,498C 290.5,498.667 220.5,498.667 150.5,498C 147.987,495.604 146.987,492.604 147.5,489C 147.009,485.246 148.009,482.079 150.5,479.5 Z"/></g>
</svg>
