<?xml version="1.0" encoding="UTF-8"?>
<!DOCTYPE svg PUBLIC "-//W3C//DTD SVG 1.1//EN" "http://www.w3.org/Graphics/SVG/1.1/DTD/svg11.dtd">
<svg xmlns="http://www.w3.org/2000/svg" version="1.1" width="512px" height="512px" style="shape-rendering:geometricPrecision; text-rendering:geometricPrecision; image-rendering:optimizeQuality; fill-rule:evenodd; clip-rule:evenodd" xmlns:xlink="http://www.w3.org/1999/xlink">
<g><path style="opacity:1" fill="#575757" d="M 130.5,-0.5 C 147.167,-0.5 163.833,-0.5 180.5,-0.5C 183.342,1.84425 185.175,4.84425 186,8.5C 186.5,18.4944 186.666,28.4944 186.5,38.5C 192.5,38.5 198.5,38.5 204.5,38.5C 204.334,28.1613 204.5,17.828 205,7.5C 206.104,4.27885 207.937,1.61218 210.5,-0.5C 240.5,-0.5 270.5,-0.5 300.5,-0.5C 303.342,1.84425 305.175,4.84425 306,8.5C 306.5,18.4944 306.666,28.4944 306.5,38.5C 312.5,38.5 318.5,38.5 324.5,38.5C 324.334,28.1613 324.5,17.828 325,7.5C 326.104,4.27885 327.937,1.61218 330.5,-0.5C 347.167,-0.5 363.833,-0.5 380.5,-0.5C 383.342,1.84425 385.175,4.84425 386,8.5C 386.667,31.5 386.667,54.5 386,77.5C 385.009,88.3166 379.842,96.4833 370.5,102C 355.786,107.071 341.119,112.238 326.5,117.5C 332.935,181.116 339.102,244.782 345,308.5C 345.388,309.428 346.055,310.095 347,310.5C 370.14,315.452 379.14,329.452 374,352.5C 371.734,355.993 370.4,359.66 370,363.5C 382.068,378.636 393.401,394.303 404,410.5C 407.551,419.872 406.718,428.872 401.5,437.5C 413.367,445.548 421.201,456.548 425,470.5C 426.921,482.518 426.921,494.518 425,506.5C 423.634,508.362 422.134,510.028 420.5,511.5C 310.5,511.5 200.5,511.5 90.5,511.5C 87.9374,509.388 86.104,506.721 85,503.5C 84.181,492.461 84.5144,481.461 86,470.5C 89.7992,456.548 97.6325,445.548 109.5,437.5C 102.525,424.998 103.358,412.998 112,401.5C 121.667,388.833 131.333,376.167 141,363.5C 140.6,359.66 139.266,355.993 137,352.5C 131.86,329.452 140.86,315.452 164,310.5C 164.945,310.095 165.612,309.428 166,308.5C 171.931,244.59 178.098,180.756 184.5,117C 169.759,112.197 155.092,107.197 140.5,102C 131.158,96.4833 125.991,88.3166 125,77.5C 124.333,54.1667 124.333,30.8333 125,7.5C 126.104,4.27885 127.937,1.61218 130.5,-0.5 Z"/></g>
<g><path style="opacity:1" fill="#000000" d="M 146.5,19.5 C 152.758,19.1903 158.924,19.5236 165,20.5C 165.333,30.8333 165.667,41.1667 166,51.5C 166.69,54.196 168.19,56.3626 170.5,58C 178.775,59.1026 187.108,59.6026 195.5,59.5C 202.5,59.3333 209.5,59.1667 216.5,59C 219.738,58.768 222.238,57.268 224,54.5C 225.088,42.9805 225.921,31.4805 226.5,20C 246.073,19.1742 265.573,19.3409 285,20.5C 285.333,30.8333 285.667,41.1667 286,51.5C 286.69,54.196 288.19,56.3626 290.5,58C 305.779,59.6018 321.112,59.9352 336.5,59C 341.333,58.1667 344.167,55.3333 345,50.5C 345.333,40.5 345.667,30.5 346,20.5C 352.084,19.358 358.251,19.1913 364.5,20C 365.659,39.7601 365.826,59.5935 365,79.5C 363.749,82.3807 361.583,84.214 358.5,85C 344.5,89.6667 330.5,94.3333 316.5,99C 275.833,99.6667 235.167,99.6667 194.5,99C 179.016,94.0612 163.683,88.7279 148.5,83C 147.789,81.7453 146.956,80.5786 146,79.5C 145.18,59.4269 145.346,39.4269 146.5,19.5 Z"/></g>
<g><path style="opacity:1" fill="#000000" d="M 205.5,119.5 C 239.073,119.171 272.573,119.504 306,120.5C 312.673,182.401 318.84,244.401 324.5,306.5C 324.449,308.1 324.116,309.6 323.5,311C 277.929,311.83 232.429,311.663 187,310.5C 191.85,251.155 197.183,191.821 203,132.5C 203.049,127.947 203.883,123.614 205.5,119.5 Z"/></g>
<g><path style="opacity:1" fill="#000000" d="M 161.5,331.5 C 224.168,331.333 286.834,331.5 349.5,332C 355.542,335.748 357.042,340.915 354,347.5C 352.786,349.049 351.286,350.215 349.5,351C 286.833,351.667 224.167,351.667 161.5,351C 155.458,347.252 153.958,342.085 157,335.5C 158.397,333.93 159.897,332.596 161.5,331.5 Z"/></g>
<g><path style="opacity:1" fill="#000000" d="M 159.5,371.5 C 223.501,371.333 287.501,371.5 351.5,372C 362.212,386.589 373.045,401.089 384,415.5C 387.042,422.085 385.542,427.252 379.5,431C 296.833,431.667 214.167,431.667 131.5,431C 125.975,428.081 124.142,423.581 126,417.5C 137.385,402.288 148.551,386.955 159.5,371.5 Z"/></g>
<g><path style="opacity:1" fill="#575857" d="M 194.5,391.5 C 203.644,392.798 206.811,397.798 204,406.5C 198.333,413.167 192.667,413.167 187,406.5C 184.286,398.779 186.786,393.779 194.5,391.5 Z"/></g>
<g><path style="opacity:1" fill="#575857" d="M 234.5,391.5 C 261.835,391.333 289.169,391.5 316.5,392C 324.236,394.094 326.736,398.927 324,406.5C 322.238,409.268 319.738,410.768 316.5,411C 289.167,411.667 261.833,411.667 234.5,411C 226.701,408.945 224.201,404.112 227,396.5C 228.913,393.72 231.413,392.053 234.5,391.5 Z"/></g>
<g><path style="opacity:1" fill="#000000" d="M 128.5,451.5 C 213.167,451.333 297.834,451.5 382.5,452C 400.829,458.361 408.329,471.194 405,490.5C 305.57,491.665 206.07,491.832 106.5,491C 102.583,471.447 109.916,458.28 128.5,451.5 Z"/></g>
</svg>
