<?xml version="1.0" encoding="UTF-8"?>
<svg xmlns="http://www.w3.org/2000/svg" xml:space="preserve" width="200px" height="200px" version="1.1" style="shape-rendering:geometricPrecision; text-rendering:geometricPrecision; image-rendering:optimizeQuality; fill-rule:evenodd; clip-rule:evenodd"
viewBox="0 0 200 200"
 xmlns:xlink="http://www.w3.org/1999/xlink"
 xmlns:xodm="http://www.corel.com/coreldraw/odm/2003">
 <defs>
  <style type="text/css">
   <![CDATA[
    .fil1 {fill:none}
    .fil0 {fill:url(#id1)}
   ]]>
  </style>
   <clipPath id="id0">
    <path d="M139.5 124.54c1.27,0.32 2.48,0.82 3.59,1.46 2.32,-1.34 3.36,-1.9 4.78,-2.73 0.74,0.74 2.43,2.43 3.04,3.07 -0.58,1.52 -2.04,3.45 -2.59,4.85 0.67,1.15 1.19,2.41 1.52,3.73 2.54,0.68 3.67,1.02 5.24,1.44 0,1.04 0,3.42 -0.03,4.31 -1.49,0.67 -3.92,1 -5.3,1.62 -0.35,1.28 -0.89,2.49 -1.56,3.61 1.34,2.34 1.91,3.37 2.73,4.8 -0.73,0.74 -2.42,2.42 -3.06,3.03 -1.57,-0.59 -3.57,-2.12 -4.99,-2.63l-0.11 -0.05c-1.06,0.58 -2.2,1.03 -3.4,1.32 -0.74,2.75 -1.08,3.9 -1.52,5.54 -1.04,0 -3.42,0 -4.31,-0.03 -0.69,-1.53 -1.02,-4.02 -1.66,-5.39 -0.06,-0.12 -0.09,-0.23 -0.11,-0.32 -1.09,-0.33 -2.13,-0.8 -3.1,-1.36l-0.1 0.05c-2.52,1.46 -3.58,2.04 -5.06,2.89 -0.74,-0.73 -2.43,-2.42 -3.04,-3.07 0.6,-1.57 2.13,-3.56 2.64,-4.98 0.07,-0.18 0.15,-0.31 0.23,-0.39 -0.52,-0.96 -0.94,-1.98 -1.23,-3.06l-0.18 -0.04c-2.82,-0.75 -3.98,-1.1 -5.63,-1.54 0,-1.04 0,-3.42 0.03,-4.31 1.53,-0.69 4.02,-1.02 5.39,-1.66 0.15,-0.07 0.28,-0.11 0.4,-0.12 0.3,-1.09 0.73,-2.13 1.27,-3.11l-0.04 -0.08c-1.46,-2.52 -2.04,-3.58 -2.89,-5.06 0.73,-0.74 2.42,-2.43 3.06,-3.04 1.57,0.6 3.57,2.13 4.99,2.64 0.08,0.03 0.15,0.07 0.22,0.1 1.02,-0.6 2.13,-1.07 3.3,-1.4 0.73,-2.73 1.07,-3.88 1.51,-5.51 1.04,0 3.42,0 4.31,0.02 0.69,1.54 1.02,4.03 1.66,5.4zm-21.43 -13.66l-0.32 0.32 -0.78 0.78 -0.79 0.79 -0.79 0.79 -0.78 0.79 -0.79 0.78 -0.79 0.79 -0.79 0.79 -0.78 0.78 -0.79 0.79 -0.79 0.79 -0.79 0.79 -0.78 0.78 -0.79 0.79 -0.79 0.79 -0.79 0.79 -0.78 0.78 -0.79 0.79 -0.79 0.79 -0.78 0.79 -0.79 0.78 -0.79 0.79 -0.79 0.79 -0.78 0.79 -0.79 0.78 -0.79 0.79 -0.79 0.79 -0.78 0.78 -0.79 0.79 -0.79 0.79 -0.79 0.79 -0.78 0.78 -0.79 0.79 -0.79 0.79 -0.78 0.79 -0.79 0.78 -0.79 0.79 -0.79 0.79 -0.78 0.79 -0.79 0.78 -0.79 0.79 -0.79 0.79 -0.78 0.78 -0.79 0.79 -0.79 0.79 -0.79 0.79 -0.78 0.78 -0.79 0.79 -0.79 0.79 -0.78 0.79 -0.79 0.78 -0.79 0.79 -0.15 0.15c-3.11,3.12 -6.97,7.34 -7.13,15.65 -0.07,3.62 -1.78,7.16 -4.54,9.93 -3.69,3.68 -8.75,5.14 -13.54,4.38l10.21 -10.2c2.06,-2.06 0.09,-5.61 -0.66,-8.42 -0.28,-1.04 -2.42,-3.12 -3.92,-3.84 -2.69,-1.29 -6.35,-2.79 -8.37,-0.76l-10.24 10.24c-0.76,-4.79 0.7,-9.85 4.38,-13.53 2.71,-2.71 6.15,-4.27 9.69,-4.53 9.01,-0.65 14.34,-4.89 16.32,-6.84l0.09 -0.09 0.31 -0.32 0.79 -0.78 0.78 -0.79 0.79 -0.79 0.79 -0.79 0.79 -0.78 0.78 -0.79 0.79 -0.79 0.79 -0.79 0.79 -0.78 0.78 -0.79 0.79 -0.79 0.79 -0.79 0.79 -0.78 0.78 -0.79 0.79 -0.79 0.79 -0.78 0.78 -0.79 0.79 -0.79 0.79 -0.79 0.79 -0.78 0.78 -0.79 0.79 -0.79 0.79 -0.79 0.79 -0.78 0.78 -0.79 0.79 -0.79 0.79 -0.79 0.79 -0.78 0.78 -0.79 0.79 -0.79 0.79 -0.78 0.78 -0.79 0.79 -0.79 0.79 -0.79 0.79 -0.78 0.78 -0.79 0.79 -0.79 0.79 -0.79 0.79 -0.78 0.78 -0.79 0.79 -0.79 0.79 -0.79 0.79 -0.78 0.78 -0.79 0.79 -0.79 0.79 -0.78 0.78 -0.79 0.79 -0.79 0.79 -0.79 0.79 -0.78 0.78 -0.79 0.15 -0.15c3.11,-3.12 6.98,-7.34 7.14,-15.65 0.07,-3.63 1.77,-7.16 4.54,-9.93 3.69,-3.68 8.75,-5.15 13.53,-4.39l-10.21 10.21c-2.06,2.06 -0.09,5.61 0.67,8.42 0.27,1.04 2.42,3.12 3.92,3.84 2.68,1.29 6.34,2.79 8.37,0.76l10.24 -10.24c0.76,4.78 -0.7,9.85 -4.39,13.53 -2.7,2.71 -6.15,4.27 -9.69,4.53 -9,0.65 -14.34,4.89 -16.31,6.84l-0.09 0.09zm-4.89 -57.08l3.34 3.34c0.61,0.61 0.06,2.29 -0.53,2.93l-10.7 11.6 -3.06 0.19 -3.85 -3.84 3.85 3.84 -31.21 31.2 0.81 0.81c0.68,0.68 0.68,1.79 0,2.47l-0.18 0.19c-0.68,0.67 -1.71,0.76 -2.19,0.28 -0.66,-0.67 -1.5,0.14 -2.1,0.73l-0.77 0.77c1.22,1.92 0.99,4.51 -0.68,6.17l-37.4 37.41c-1.93,1.93 -5.09,1.93 -7.02,0l-3.77 -3.77c-1.93,-1.93 -1.93,-5.09 0,-7.02l37.4 -37.41c1.89,-1.88 4.95,-1.93 6.89,-0.13l0.7 -0.71c0.69,-0.69 1.34,-1.46 0.53,-2.26 -0.49,-0.49 -0.42,-1.53 0.26,-2.21l0.18 -0.19c0.68,-0.68 1.79,-0.68 2.47,0l1.03 1.03 31.2 -31.2 0.11 -3.15 12 -10.37c0.64,-0.55 2.09,-1.3 2.69,-0.7zm-15.1 -39.04l56.7 0c11.69,0 21.26,9.56 21.26,21.26l0 5.69 1.37 0c0.82,0 1.49,0.67 1.49,1.49l0 16.97c0,0.81 -0.67,1.48 -1.49,1.48l-1.37 0 0 4.8 1.37 0c0.82,0 1.49,0.67 1.49,1.49l0 7.47c0,0.82 -0.67,1.49 -1.49,1.49l-1.37 0 0 85.36c0,12.43 -10.18,22.61 -22.62,22.61l-55.34 0c-11.43,0 -20.95,-8.59 -22.41,-19.63 -0.59,-4.4 2.78,-7.67 5.99,-10.53l0 8.8c0,8.48 6.95,15.43 15.43,15.43l57.32 0c8.49,0 15.43,-6.95 15.43,-15.43l0 -127.39c0,-8.49 -6.94,-15.43 -15.43,-15.43l-57.32 0c-8.48,0 -15.43,6.94 -15.43,15.43l0 41.7 -6.19 6.42 0 -46.86c0,-12.44 10.17,-22.62 22.61,-22.62zm-22.61 115.9l0 -25.13 6.19 -6.91 0 26.39 -6.19 5.65zm71.58 -89.57c0.8,-0.04 1.58,0.02 2.34,0.19 1.1,-1.2 1.59,-1.72 2.26,-2.46 0.56,0.29 1.85,0.96 2.32,1.22 -0.06,0.98 -0.54,2.36 -0.6,3.27 0.6,0.54 1.13,1.17 1.56,1.87 1.59,-0.07 2.3,-0.09 3.29,-0.13 0.19,0.6 0.63,1.97 0.78,2.49 -0.74,0.67 -2.08,1.3 -2.76,1.91 0.03,0.81 -0.06,1.61 -0.24,2.37 1.2,1.11 1.72,1.6 2.46,2.27 -0.29,0.56 -0.95,1.85 -1.21,2.32 -1.02,-0.06 -2.45,-0.57 -3.37,-0.61l-0.07 0c-0.5,0.53 -1.08,0.99 -1.72,1.38 0.08,1.73 0.1,2.46 0.14,3.48 -0.6,0.19 -1.97,0.63 -2.49,0.78 -0.68,-0.76 -1.33,-2.14 -1.95,-2.81 -0.05,-0.06 -0.09,-0.11 -0.12,-0.16 -0.69,0 -1.38,-0.07 -2.04,-0.22l-0.05 0.05c-1.19,1.31 -1.69,1.84 -2.39,2.6 -0.56,-0.29 -1.84,-0.95 -2.32,-1.21 0.06,-1.02 0.58,-2.45 0.61,-3.36 0.01,-0.12 0.03,-0.21 0.06,-0.27 -0.48,-0.46 -0.91,-0.97 -1.27,-1.54l-0.11 0.01c-1.77,0.08 -2.5,0.1 -3.54,0.15 -0.19,-0.61 -0.63,-1.98 -0.78,-2.5 0.76,-0.68 2.14,-1.33 2.81,-1.95 0.08,-0.07 0.15,-0.11 0.21,-0.14 -0.03,-0.69 0.03,-1.37 0.17,-2.03l-0.05 -0.04c-1.3,-1.19 -1.83,-1.69 -2.6,-2.39 0.29,-0.56 0.95,-1.84 1.22,-2.31 1.01,0.05 2.45,0.57 3.36,0.6 0.05,0 0.1,0.01 0.14,0.02 0.49,-0.54 1.04,-1.01 1.65,-1.42 -0.08,-1.71 -0.09,-2.44 -0.14,-3.45 0.6,-0.2 1.97,-0.64 2.49,-0.78 0.68,0.75 1.33,2.13 1.95,2.8zm-1.39 3.04c3.18,-1.02 6.59,0.74 7.61,3.93 1.01,3.18 -0.75,6.59 -3.93,7.61 -3.19,1.01 -6.6,-0.75 -7.61,-3.93 -1.02,-3.19 0.74,-6.6 3.93,-7.61zm-9.87 84.48c5.52,0 9.99,4.47 9.99,9.99 0,5.52 -4.47,10 -9.99,10 -5.52,0 -10,-4.48 -10,-10 0,-5.52 4.48,-9.99 10,-9.99z"/>
   </clipPath>
  <linearGradient id="id1" gradientUnits="userSpaceOnUse" x1="23.8" y1="158.64" x2="186.74" y2="30.83">
   <stop offset="0" style="stop-opacity:1; stop-color:#00158F"/>
   <stop offset="0.258824" style="stop-opacity:1; stop-color:#5938B4"/>
   <stop offset="0.360784" style="stop-opacity:1; stop-color:#B35BD9"/>
   <stop offset="0.396078" style="stop-opacity:1; stop-color:#8B2ED3"/>
   <stop offset="0.490196" style="stop-opacity:1; stop-color:#6300CC"/>
   <stop offset="0.6" style="stop-opacity:1; stop-color:#6908D2"/>
   <stop offset="1" style="stop-opacity:1; stop-color:#3F97FC"/>
  </linearGradient>
 </defs>
 <g id="Capa_x0020_1">
  <metadata id="CorelCorpID_0Corel-Layer"/>
  <g>
  </g>
  <g style="clip-path:url(#id0)">
   <g>
    <polygon class="fil0" points="-58.18,54.13 112.74,-63.51 268.71,135.35 97.8,252.99 "/>
   </g>
  </g>
  <path class="fil1" d="M139.5 124.54c1.27,0.32 2.48,0.82 3.59,1.46 2.32,-1.34 3.36,-1.9 4.78,-2.73 0.74,0.74 2.43,2.43 3.04,3.07 -0.58,1.52 -2.04,3.45 -2.59,4.85 0.67,1.15 1.19,2.41 1.52,3.73 2.54,0.68 3.67,1.02 5.24,1.44 0,1.04 0,3.42 -0.03,4.31 -1.49,0.67 -3.92,1 -5.3,1.62 -0.35,1.28 -0.89,2.49 -1.56,3.61 1.34,2.34 1.91,3.37 2.73,4.8 -0.73,0.74 -2.42,2.42 -3.06,3.03 -1.57,-0.59 -3.57,-2.12 -4.99,-2.63l-0.11 -0.05c-1.06,0.58 -2.2,1.03 -3.4,1.32 -0.74,2.75 -1.08,3.9 -1.52,5.54 -1.04,0 -3.42,0 -4.31,-0.03 -0.69,-1.53 -1.02,-4.02 -1.66,-5.39 -0.06,-0.12 -0.09,-0.23 -0.11,-0.32 -1.09,-0.33 -2.13,-0.8 -3.1,-1.36l-0.1 0.05c-2.52,1.46 -3.58,2.04 -5.06,2.89 -0.74,-0.73 -2.43,-2.42 -3.04,-3.07 0.6,-1.57 2.13,-3.56 2.64,-4.98 0.07,-0.18 0.15,-0.31 0.23,-0.39 -0.52,-0.96 -0.94,-1.98 -1.23,-3.06l-0.18 -0.04c-2.82,-0.75 -3.98,-1.1 -5.63,-1.54 0,-1.04 0,-3.42 0.03,-4.31 1.53,-0.69 4.02,-1.02 5.39,-1.66 0.15,-0.07 0.28,-0.11 0.4,-0.12 0.3,-1.09 0.73,-2.13 1.27,-3.11l-0.04 -0.08c-1.46,-2.52 -2.04,-3.58 -2.89,-5.06 0.73,-0.74 2.42,-2.43 3.06,-3.04 1.57,0.6 3.57,2.13 4.99,2.64 0.08,0.03 0.15,0.07 0.22,0.1 1.02,-0.6 2.13,-1.07 3.3,-1.4 0.73,-2.73 1.07,-3.88 1.51,-5.51 1.04,0 3.42,0 4.31,0.02 0.69,1.54 1.02,4.03 1.66,5.4zm-21.43 -13.66l-0.32 0.32 -0.78 0.78 -0.79 0.79 -0.79 0.79 -0.78 0.79 -0.79 0.78 -0.79 0.79 -0.79 0.79 -0.78 0.78 -0.79 0.79 -0.79 0.79 -0.79 0.79 -0.78 0.78 -0.79 0.79 -0.79 0.79 -0.79 0.79 -0.78 0.78 -0.79 0.79 -0.79 0.79 -0.78 0.79 -0.79 0.78 -0.79 0.79 -0.79 0.79 -0.78 0.79 -0.79 0.78 -0.79 0.79 -0.79 0.79 -0.78 0.78 -0.79 0.79 -0.79 0.79 -0.79 0.79 -0.78 0.78 -0.79 0.79 -0.79 0.79 -0.78 0.79 -0.79 0.78 -0.79 0.79 -0.79 0.79 -0.78 0.79 -0.79 0.78 -0.79 0.79 -0.79 0.79 -0.78 0.78 -0.79 0.79 -0.79 0.79 -0.79 0.79 -0.78 0.78 -0.79 0.79 -0.79 0.79 -0.78 0.79 -0.79 0.78 -0.79 0.79 -0.15 0.15c-3.11,3.12 -6.97,7.34 -7.13,15.65 -0.07,3.62 -1.78,7.16 -4.54,9.93 -3.69,3.68 -8.75,5.14 -13.54,4.38l10.21 -10.2c2.06,-2.06 0.09,-5.61 -0.66,-8.42 -0.28,-1.04 -2.42,-3.12 -3.92,-3.84 -2.69,-1.29 -6.35,-2.79 -8.37,-0.76l-10.24 10.24c-0.76,-4.79 0.7,-9.85 4.38,-13.53 2.71,-2.71 6.15,-4.27 9.69,-4.53 9.01,-0.65 14.34,-4.89 16.32,-6.84l0.09 -0.09 0.31 -0.32 0.79 -0.78 0.78 -0.79 0.79 -0.79 0.79 -0.79 0.79 -0.78 0.78 -0.79 0.79 -0.79 0.79 -0.79 0.79 -0.78 0.78 -0.79 0.79 -0.79 0.79 -0.79 0.79 -0.78 0.78 -0.79 0.79 -0.79 0.79 -0.78 0.78 -0.79 0.79 -0.79 0.79 -0.79 0.79 -0.78 0.78 -0.79 0.79 -0.79 0.79 -0.79 0.79 -0.78 0.78 -0.79 0.79 -0.79 0.79 -0.79 0.79 -0.78 0.78 -0.79 0.79 -0.79 0.79 -0.78 0.78 -0.79 0.79 -0.79 0.79 -0.79 0.79 -0.78 0.78 -0.79 0.79 -0.79 0.79 -0.79 0.79 -0.78 0.78 -0.79 0.79 -0.79 0.79 -0.79 0.79 -0.78 0.78 -0.79 0.79 -0.79 0.79 -0.78 0.78 -0.79 0.79 -0.79 0.79 -0.79 0.79 -0.78 0.78 -0.79 0.15 -0.15c3.11,-3.12 6.98,-7.34 7.14,-15.65 0.07,-3.63 1.77,-7.16 4.54,-9.93 3.69,-3.68 8.75,-5.15 13.53,-4.39l-10.21 10.21c-2.06,2.06 -0.09,5.61 0.67,8.42 0.27,1.04 2.42,3.12 3.92,3.84 2.68,1.29 6.34,2.79 8.37,0.76l10.24 -10.24c0.76,4.78 -0.7,9.85 -4.39,13.53 -2.7,2.71 -6.15,4.27 -9.69,4.53 -9,0.65 -14.34,4.89 -16.31,6.84l-0.09 0.09zm-4.89 -57.08l3.34 3.34c0.61,0.61 0.06,2.29 -0.53,2.93l-10.7 11.6 -3.06 0.19 -3.85 -3.84 3.85 3.84 -31.21 31.2 0.81 0.81c0.68,0.68 0.68,1.79 0,2.47l-0.18 0.19c-0.68,0.67 -1.71,0.76 -2.19,0.28 -0.66,-0.67 -1.5,0.14 -2.1,0.73l-0.77 0.77c1.22,1.92 0.99,4.51 -0.68,6.17l-37.4 37.41c-1.93,1.93 -5.09,1.93 -7.02,0l-3.77 -3.77c-1.93,-1.93 -1.93,-5.09 0,-7.02l37.4 -37.41c1.89,-1.88 4.95,-1.93 6.89,-0.13l0.7 -0.71c0.69,-0.69 1.34,-1.46 0.53,-2.26 -0.49,-0.49 -0.42,-1.53 0.26,-2.21l0.18 -0.19c0.68,-0.68 1.79,-0.68 2.47,0l1.03 1.03 31.2 -31.2 0.11 -3.15 12 -10.37c0.64,-0.55 2.09,-1.3 2.69,-0.7zm-15.1 -39.04l56.7 0c11.69,0 21.26,9.56 21.26,21.26l0 5.69 1.37 0c0.82,0 1.49,0.67 1.49,1.49l0 16.97c0,0.81 -0.67,1.48 -1.49,1.48l-1.37 0 0 4.8 1.37 0c0.82,0 1.49,0.67 1.49,1.49l0 7.47c0,0.82 -0.67,1.49 -1.49,1.49l-1.37 0 0 85.36c0,12.43 -10.18,22.61 -22.62,22.61l-55.34 0c-11.43,0 -20.95,-8.59 -22.41,-19.63 -0.59,-4.4 2.78,-7.67 5.99,-10.53l0 8.8c0,8.48 6.95,15.43 15.43,15.43l57.32 0c8.49,0 15.43,-6.95 15.43,-15.43l0 -127.39c0,-8.49 -6.94,-15.43 -15.43,-15.43l-57.32 0c-8.48,0 -15.43,6.94 -15.43,15.43l0 41.7 -6.19 6.42 0 -46.86c0,-12.44 10.17,-22.62 22.61,-22.62zm-22.61 115.9l0 -25.13 6.19 -6.91 0 26.39 -6.19 5.65zm71.58 -89.57c0.8,-0.04 1.58,0.02 2.34,0.19 1.1,-1.2 1.59,-1.72 2.26,-2.46 0.56,0.29 1.85,0.96 2.32,1.22 -0.06,0.98 -0.54,2.36 -0.6,3.27 0.6,0.54 1.13,1.17 1.56,1.87 1.59,-0.07 2.3,-0.09 3.29,-0.13 0.19,0.6 0.63,1.97 0.78,2.49 -0.74,0.67 -2.08,1.3 -2.76,1.91 0.03,0.81 -0.06,1.61 -0.24,2.37 1.2,1.11 1.72,1.6 2.46,2.27 -0.29,0.56 -0.95,1.85 -1.21,2.32 -1.02,-0.06 -2.45,-0.57 -3.37,-0.61l-0.07 0c-0.5,0.53 -1.08,0.99 -1.72,1.38 0.08,1.73 0.1,2.46 0.14,3.48 -0.6,0.19 -1.97,0.63 -2.49,0.78 -0.68,-0.76 -1.33,-2.14 -1.95,-2.81 -0.05,-0.06 -0.09,-0.11 -0.12,-0.16 -0.69,0 -1.38,-0.07 -2.04,-0.22l-0.05 0.05c-1.19,1.31 -1.69,1.84 -2.39,2.6 -0.56,-0.29 -1.84,-0.95 -2.32,-1.21 0.06,-1.02 0.58,-2.45 0.61,-3.36 0.01,-0.12 0.03,-0.21 0.06,-0.27 -0.48,-0.46 -0.91,-0.97 -1.27,-1.54l-0.11 0.01c-1.77,0.08 -2.5,0.1 -3.54,0.15 -0.19,-0.61 -0.63,-1.98 -0.78,-2.5 0.76,-0.68 2.14,-1.33 2.81,-1.95 0.08,-0.07 0.15,-0.11 0.21,-0.14 -0.03,-0.69 0.03,-1.37 0.17,-2.03l-0.05 -0.04c-1.3,-1.19 -1.83,-1.69 -2.6,-2.39 0.29,-0.56 0.95,-1.84 1.22,-2.31 1.01,0.05 2.45,0.57 3.36,0.6 0.05,0 0.1,0.01 0.14,0.02 0.49,-0.54 1.04,-1.01 1.65,-1.42 -0.08,-1.71 -0.09,-2.44 -0.14,-3.45 0.6,-0.2 1.97,-0.64 2.49,-0.78 0.68,0.75 1.33,2.13 1.95,2.8zm-1.39 3.04c3.18,-1.02 6.59,0.74 7.61,3.93 1.01,3.18 -0.75,6.59 -3.93,7.61 -3.19,1.01 -6.6,-0.75 -7.61,-3.93 -1.02,-3.19 0.74,-6.6 3.93,-7.61zm-9.87 84.48c5.52,0 9.99,4.47 9.99,9.99 0,5.52 -4.47,10 -9.99,10 -5.52,0 -10,-4.48 -10,-10 0,-5.52 4.48,-9.99 10,-9.99z"/>
 </g>
</svg>
